<svg width="17" height="16" viewBox="0 0 17 16" fill="none" xmlns="http://www.w3.org/2000/svg">
<path fill-rule="evenodd" clip-rule="evenodd" d="M8.49984 1.99984C5.18613 1.99984 2.49984 4.68613 2.49984 7.99984C2.49984 11.3135 5.18613 13.9998 8.49984 13.9998C11.8135 13.9998 14.4998 11.3135 14.4998 7.99984C14.4998 4.68613 11.8135 1.99984 8.49984 1.99984ZM1.1665 7.99984C1.1665 3.94975 4.44975 0.666504 8.49984 0.666504C12.5499 0.666504 15.8332 3.94975 15.8332 7.99984C15.8332 12.0499 12.5499 15.3332 8.49984 15.3332C4.44975 15.3332 1.1665 12.0499 1.1665 7.99984Z" fill="#F2994A"/>
<path fill-rule="evenodd" clip-rule="evenodd" d="M8.50016 3.3335C8.86835 3.3335 9.16683 3.63197 9.16683 4.00016V7.58814L11.465 8.73721C11.7943 8.90187 11.9278 9.30232 11.7631 9.63164C11.5985 9.96096 11.198 10.0944 10.8687 9.92978L8.20202 8.59645C7.97616 8.48352 7.8335 8.25268 7.8335 8.00016V4.00016C7.8335 3.63197 8.13197 3.3335 8.50016 3.3335Z" fill="#F2994A"/>
</svg>
