<svg width="28" height="28" viewBox="0 0 28 28" fill="none" xmlns="http://www.w3.org/2000/svg">
<path fill-rule="evenodd" clip-rule="evenodd" d="M5.83333 4.59375C5.14873 4.59375 4.59375 5.14873 4.59375 5.83333V22.1667C4.59375 22.8513 5.14873 23.4062 5.83333 23.4062H22.1667C22.8513 23.4062 23.4062 22.8513 23.4062 22.1667V5.83333C23.4062 5.14873 22.8513 4.59375 22.1667 4.59375H5.83333ZM2.40625 5.83333C2.40625 3.94061 3.94061 2.40625 5.83333 2.40625H22.1667C24.0594 2.40625 25.5938 3.94061 25.5938 5.83333V22.1667C25.5938 24.0594 24.0594 25.5938 22.1667 25.5938H5.83333C3.94061 25.5938 2.40625 24.0594 2.40625 22.1667V5.83333Z" fill="#6F6F6F"/>
<path fill-rule="evenodd" clip-rule="evenodd" d="M14 8.2395C14.6041 8.2395 15.0938 8.72919 15.0938 9.33325V18.6666C15.0938 19.2706 14.6041 19.7603 14 19.7603C13.3959 19.7603 12.9062 19.2706 12.9062 18.6666V9.33325C12.9062 8.72919 13.3959 8.2395 14 8.2395Z" fill="#6F6F6F"/>
<path fill-rule="evenodd" clip-rule="evenodd" d="M8.24023 14C8.24023 13.3959 8.72992 12.9062 9.33398 12.9062H18.6673C19.2714 12.9062 19.7611 13.3959 19.7611 14C19.7611 14.6041 19.2714 15.0938 18.6673 15.0938H9.33398C8.72992 15.0938 8.24023 14.6041 8.24023 14Z" fill="#6F6F6F"/>
</svg>
