<svg width="28" height="28" viewBox="0 0 28 28" fill="none" xmlns="http://www.w3.org/2000/svg">
<path fill-rule="evenodd" clip-rule="evenodd" d="M21 19.7605C19.6711 19.7605 18.5938 20.8378 18.5938 22.1667C18.5938 23.4957 19.6711 24.573 21 24.573C22.3289 24.573 23.4062 23.4957 23.4062 22.1667C23.4062 20.8378 22.3289 19.7605 21 19.7605ZM16.4062 22.1667C16.4062 19.6297 18.4629 17.573 21 17.573C23.5371 17.573 25.5938 19.6297 25.5938 22.1667C25.5938 24.7038 23.5371 26.7605 21 26.7605C18.4629 26.7605 16.4062 24.7038 16.4062 22.1667Z" fill="#6F6F6F"/>
<path fill-rule="evenodd" clip-rule="evenodd" d="M7 11.5938C5.67106 11.5938 4.59375 12.6711 4.59375 14C4.59375 15.3289 5.67106 16.4062 7 16.4062C8.32894 16.4062 9.40625 15.3289 9.40625 14C9.40625 12.6711 8.32894 11.5938 7 11.5938ZM2.40625 14C2.40625 11.4629 4.46294 9.40625 7 9.40625C9.53706 9.40625 11.5938 11.4629 11.5938 14C11.5938 16.5371 9.53706 18.5938 7 18.5938C4.46294 18.5938 2.40625 16.5371 2.40625 14Z" fill="#6F6F6F"/>
<path fill-rule="evenodd" clip-rule="evenodd" d="M9.07665 15.211C9.38079 14.6891 10.0504 14.5125 10.5723 14.8166L18.5407 19.46C19.0626 19.7641 19.2391 20.4338 18.935 20.9557C18.6309 21.4776 17.9612 21.6541 17.4393 21.35L9.47098 16.7067C8.94907 16.4025 8.77252 15.7329 9.07665 15.211Z" fill="#6F6F6F"/>
<path fill-rule="evenodd" clip-rule="evenodd" d="M21 3.427C19.6711 3.427 18.5938 4.50432 18.5938 5.83325C18.5938 7.16219 19.6711 8.2395 21 8.2395C22.3289 8.2395 23.4062 7.16219 23.4062 5.83325C23.4062 4.50432 22.3289 3.427 21 3.427ZM16.4062 5.83325C16.4062 3.29619 18.4629 1.2395 21 1.2395C23.5371 1.2395 25.5938 3.29619 25.5938 5.83325C25.5938 8.37031 23.5371 10.427 21 10.427C18.4629 10.427 16.4062 8.37031 16.4062 5.83325Z" fill="#6F6F6F"/>
<path fill-rule="evenodd" clip-rule="evenodd" d="M18.923 7.04362C19.2275 7.56534 19.0513 8.2351 18.5296 8.53956L10.5729 13.1829C10.0512 13.4874 9.38147 13.3112 9.077 12.7895C8.77254 12.2678 8.94866 11.598 9.47038 11.2936L17.427 6.65025C17.9488 6.34578 18.6185 6.5219 18.923 7.04362Z" fill="#6F6F6F"/>
</svg>
