<svg width="24" height="24" viewBox="0 0 24 24" fill="none" xmlns="http://www.w3.org/2000/svg">
<g opacity="0.8">
<path fill-rule="evenodd" clip-rule="evenodd" d="M0 2.5502C0 1.80461 0.537258 1.2002 1.2 1.2002H22.8C23.4627 1.2002 24 1.80461 24 2.5502C24 3.29578 23.4627 3.90019 22.8 3.90019H1.2C0.537258 3.90019 0 3.29578 0 2.5502Z" fill="#161616"/>
<path fill-rule="evenodd" clip-rule="evenodd" d="M0 12.4501C0 11.7045 0.537258 11.1001 1.2 11.1001H22.8C23.4627 11.1001 24 11.7045 24 12.4501C24 13.1957 23.4627 13.8001 22.8 13.8001H1.2C0.537258 13.8001 0 13.1957 0 12.4501Z" fill="#161616"/>
<path fill-rule="evenodd" clip-rule="evenodd" d="M0 22.35C0 21.6044 0.537258 21 1.2 21H22.8C23.4627 21 24 21.6044 24 22.35C24 23.0956 23.4627 23.7 22.8 23.7H1.2C0.537258 23.7 0 23.0956 0 22.35Z" fill="#161616"/>
</g>
</svg>
