<svg width="20" height="20" viewBox="0 0 20 20" fill="none" xmlns="http://www.w3.org/2000/svg">
<path fill-rule="evenodd" clip-rule="evenodd" d="M13.8916 10.9419C15.0333 11.7169 15.8333 12.7669 15.8333 14.1669V16.6669H19.1666V14.1669C19.1666 12.3502 16.1916 11.2752 13.8916 10.9419Z" fill="#111111"/>
<path d="M7.49935 10.0002C9.3403 10.0002 10.8327 8.50778 10.8327 6.66683C10.8327 4.82588 9.3403 3.3335 7.49935 3.3335C5.6584 3.3335 4.16602 4.82588 4.16602 6.66683C4.16602 8.50778 5.6584 10.0002 7.49935 10.0002Z" fill="#111111"/>
<path fill-rule="evenodd" clip-rule="evenodd" d="M12.4999 10.0002C14.3416 10.0002 15.8333 8.5085 15.8333 6.66683C15.8333 4.82516 14.3416 3.3335 12.4999 3.3335C12.1083 3.3335 11.7416 3.41683 11.3916 3.5335C12.0833 4.39183 12.4999 5.4835 12.4999 6.66683C12.4999 7.85016 12.0833 8.94183 11.3916 9.80016C11.7416 9.91683 12.1083 10.0002 12.4999 10.0002Z" fill="#111111"/>
<path fill-rule="evenodd" clip-rule="evenodd" d="M7.49967 10.8335C5.27467 10.8335 0.833008 11.9502 0.833008 14.1668V16.6668H14.1663V14.1668C14.1663 11.9502 9.72467 10.8335 7.49967 10.8335Z" fill="#111111"/>
</svg>
