<svg width="22" height="22" viewBox="0 0 22 22" fill="none" xmlns="http://www.w3.org/2000/svg">
<path d="M5.87763 0.559143C6.75317 0.559167 7.43902 0.923976 7.93517 1.65357C8.46049 2.35403 8.75233 3.31713 8.81071 4.54287V9.13948H10.0365L12.094 11.2408H8.81071V17.1945C8.8107 17.6614 8.98581 18.0846 9.33603 18.464C9.68625 18.8434 10.2553 19.0331 11.0433 19.0331C12.0648 19.0331 13.1446 18.464 14.2829 17.3258C15.4502 16.1584 16.0631 14.9619 16.1215 13.7361L15.5962 13.7799C13.7283 13.7799 12.7944 12.7876 12.7944 10.803C12.7944 10.1318 13.0133 9.53349 13.4511 9.00815C13.8889 8.48284 14.6185 8.22017 15.64 8.22016C16.7198 8.22017 17.6245 8.68713 18.3541 9.62103C19.1129 10.555 19.4923 11.6932 19.4923 13.0357C19.4923 15.0202 18.646 16.9172 16.9533 18.7267C15.2897 20.5362 13.3052 21.4409 10.9996 21.4409C10.1532 21.4409 9.24847 21.0761 8.28538 20.3464C7.35146 19.5876 6.79695 18.858 6.62185 18.1576V11.2408H4.52054L2.50679 9.13948H6.62185V4.98064C6.62185 4.1343 6.11111 3.63816 5.08964 3.49222C4.62269 3.49224 4.31625 3.5652 4.17032 3.7111C3.90766 3.27335 3.65959 2.74803 3.42611 2.13512V1.91624C3.42611 1.53686 3.71796 1.21583 4.30166 0.95314C4.88535 0.690501 5.41067 0.559167 5.87763 0.559143" fill="#BDBDBD"/>
</svg>
