<svg width="41" height="40" viewBox="0 0 41 40" fill="none" xmlns="http://www.w3.org/2000/svg">
<path d="M32.1666 21.6665C31.7246 21.6665 31.3006 21.8421 30.9881 22.1546C30.6755 22.4672 30.4999 22.8911 30.4999 23.3332V23.9665L28.0333 21.4998C27.1623 20.6357 25.9851 20.1509 24.7583 20.1509C23.5314 20.1509 22.3542 20.6357 21.4833 21.4998L20.3166 22.6665L16.1833 18.5332C15.3001 17.6925 14.1275 17.2236 12.9083 17.2236C11.689 17.2236 10.5164 17.6925 9.63325 18.5332L7.16659 20.9998V11.6665C7.16659 11.2245 7.34218 10.8005 7.65474 10.488C7.9673 10.1754 8.39122 9.99983 8.83325 9.99983H20.4999C20.9419 9.99983 21.3659 9.82423 21.6784 9.51167C21.991 9.19911 22.1666 8.77519 22.1666 8.33316C22.1666 7.89113 21.991 7.46721 21.6784 7.15465C21.3659 6.84209 20.9419 6.66649 20.4999 6.66649H8.83325C7.50717 6.66649 6.2354 7.19328 5.29772 8.13096C4.36004 9.06864 3.83325 10.3404 3.83325 11.6665V31.6665C3.83325 32.9926 4.36004 34.2644 5.29772 35.202C6.2354 36.1397 7.50717 36.6665 8.83325 36.6665H28.8333C30.1593 36.6665 31.4311 36.1397 32.3688 35.202C33.3065 34.2644 33.8333 32.9926 33.8333 31.6665V23.3332C33.8333 22.8911 33.6577 22.4672 33.3451 22.1546C33.0325 21.8421 32.6086 21.6665 32.1666 21.6665ZM8.83325 33.3332C8.39122 33.3332 7.9673 33.1576 7.65474 32.845C7.34218 32.5324 7.16659 32.1085 7.16659 31.6665V25.7165L11.9999 20.8832C12.2448 20.6498 12.57 20.5197 12.9083 20.5197C13.2465 20.5197 13.5717 20.6498 13.8166 20.8832L19.0999 26.1665L26.2666 33.3332H8.83325ZM30.4999 31.6665C30.4975 31.9855 30.3923 32.2953 30.1999 32.5498L22.6833 24.9998L23.8499 23.8332C23.9694 23.7112 24.112 23.6143 24.2694 23.5482C24.4268 23.482 24.5959 23.448 24.7666 23.448C24.9373 23.448 25.1063 23.482 25.2637 23.5482C25.4211 23.6143 25.5638 23.7112 25.6833 23.8332L30.4999 28.6832V31.6665ZM38.3499 7.14983L33.3499 2.14983C33.1914 1.99809 33.0045 1.87915 32.7999 1.79983C32.3941 1.63313 31.939 1.63313 31.5333 1.79983C31.3287 1.87915 31.1418 1.99809 30.9833 2.14983L25.9833 7.14983C25.8279 7.30522 25.7046 7.48971 25.6205 7.69275C25.5364 7.89578 25.4931 8.1134 25.4931 8.33316C25.4931 8.777 25.6694 9.20265 25.9833 9.51649C26.2971 9.83033 26.7227 10.0066 27.1666 10.0066C27.6104 10.0066 28.0361 9.83033 28.3499 9.51649L30.4999 7.34983V16.6665C30.4999 17.1085 30.6755 17.5324 30.9881 17.845C31.3006 18.1576 31.7246 18.3332 32.1666 18.3332C32.6086 18.3332 33.0325 18.1576 33.3451 17.845C33.6577 17.5324 33.8333 17.1085 33.8333 16.6665V7.34983L35.9833 9.51649C36.1382 9.67271 36.3225 9.7967 36.5256 9.88131C36.7287 9.96593 36.9466 10.0095 37.1666 10.0095C37.3866 10.0095 37.6045 9.96593 37.8075 9.88131C38.0106 9.7967 38.195 9.67271 38.3499 9.51649C38.5061 9.36156 38.6301 9.17722 38.7147 8.97412C38.7994 8.77102 38.8429 8.55318 38.8429 8.33316C38.8429 8.11314 38.7994 7.8953 38.7147 7.6922C38.6301 7.4891 38.5061 7.30477 38.3499 7.14983Z" fill="#C4C4C4"/>
</svg>
