<svg width="28" height="28" viewBox="0 0 28 28" fill="none" xmlns="http://www.w3.org/2000/svg">
<path d="M8.16732 11.6666C7.93657 11.6666 7.71101 11.735 7.51915 11.8632C7.32729 11.9914 7.17776 12.1736 7.08946 12.3868C7.00116 12.6 6.97805 12.8345 7.02307 13.0609C7.06808 13.2872 7.1792 13.495 7.34236 13.6582C7.50552 13.8214 7.7134 13.9325 7.93971 13.9775C8.16602 14.0225 8.4006 13.9994 8.61378 13.9111C8.82696 13.8228 9.00917 13.6733 9.13737 13.4814C9.26556 13.2896 9.33398 13.064 9.33398 12.8333C9.33398 12.5238 9.21107 12.2271 8.99228 12.0083C8.77348 11.7895 8.47674 11.6666 8.16732 11.6666ZM22.1673 6.99992H21.0007V3.49992C21.0007 3.1905 20.8777 2.89375 20.6589 2.67496C20.4401 2.45617 20.1434 2.33325 19.834 2.33325H8.16732C7.8579 2.33325 7.56115 2.45617 7.34236 2.67496C7.12357 2.89375 7.00065 3.1905 7.00065 3.49992V6.99992H5.83398C4.90573 6.99992 4.01549 7.36867 3.35911 8.02505C2.70273 8.68142 2.33398 9.57166 2.33398 10.4999V17.4999C2.33398 18.4282 2.70273 19.3184 3.35911 19.9748C4.01549 20.6312 4.90573 20.9999 5.83398 20.9999H7.00065V24.4999C7.00065 24.8093 7.12357 25.1061 7.34236 25.3249C7.56115 25.5437 7.8579 25.6666 8.16732 25.6666H19.834C20.1434 25.6666 20.4401 25.5437 20.6589 25.3249C20.8777 25.1061 21.0007 24.8093 21.0007 24.4999V20.9999H22.1673C23.0956 20.9999 23.9858 20.6312 24.6422 19.9748C25.2986 19.3184 25.6673 18.4282 25.6673 17.4999V10.4999C25.6673 9.57166 25.2986 8.68142 24.6422 8.02505C23.9858 7.36867 23.0956 6.99992 22.1673 6.99992ZM9.33398 4.66659H18.6673V6.99992H9.33398V4.66659ZM18.6673 23.3333H9.33398V18.6666H18.6673V23.3333ZM23.334 17.4999C23.334 17.8093 23.2111 18.1061 22.9923 18.3249C22.7735 18.5437 22.4767 18.6666 22.1673 18.6666H21.0007V17.4999C21.0007 17.1905 20.8777 16.8938 20.6589 16.675C20.4401 16.4562 20.1434 16.3333 19.834 16.3333H8.16732C7.8579 16.3333 7.56115 16.4562 7.34236 16.675C7.12357 16.8938 7.00065 17.1905 7.00065 17.4999V18.6666H5.83398C5.52456 18.6666 5.22782 18.5437 5.00903 18.3249C4.79023 18.1061 4.66732 17.8093 4.66732 17.4999V10.4999C4.66732 10.1905 4.79023 9.89375 5.00903 9.67496C5.22782 9.45617 5.52456 9.33325 5.83398 9.33325H22.1673C22.4767 9.33325 22.7735 9.45617 22.9923 9.67496C23.2111 9.89375 23.334 10.1905 23.334 10.4999V17.4999Z" fill="#6F6F6F"/>
</svg>
