<svg width="24" height="24" viewBox="0 0 24 24" fill="none" xmlns="http://www.w3.org/2000/svg">
<path d="M10 16.7998C10.2652 16.7998 10.5196 16.6945 10.7071 16.5069C10.8946 16.3194 11 16.065 11 15.7998V9.79981C11 9.53459 10.8946 9.28024 10.7071 9.0927C10.5196 8.90516 10.2652 8.79981 10 8.79981C9.73478 8.79981 9.48043 8.90516 9.29289 9.0927C9.10536 9.28024 9 9.53459 9 9.79981V15.7998C9 16.065 9.10536 16.3194 9.29289 16.5069C9.48043 16.6945 9.73478 16.7998 10 16.7998ZM20 4.79981H16V3.79981C16 3.00416 15.6839 2.24109 15.1213 1.67848C14.5587 1.11588 13.7956 0.799805 13 0.799805H11C10.2044 0.799805 9.44129 1.11588 8.87868 1.67848C8.31607 2.24109 8 3.00416 8 3.79981V4.79981H4C3.73478 4.79981 3.48043 4.90516 3.29289 5.0927C3.10536 5.28023 3 5.53459 3 5.79981C3 6.06502 3.10536 6.31938 3.29289 6.50691C3.48043 6.69445 3.73478 6.79981 4 6.79981H5V17.7998C5 18.5955 5.31607 19.3585 5.87868 19.9211C6.44129 20.4837 7.20435 20.7998 8 20.7998H16C16.7956 20.7998 17.5587 20.4837 18.1213 19.9211C18.6839 19.3585 19 18.5955 19 17.7998V6.79981H20C20.2652 6.79981 20.5196 6.69445 20.7071 6.50691C20.8946 6.31938 21 6.06502 21 5.79981C21 5.53459 20.8946 5.28023 20.7071 5.0927C20.5196 4.90516 20.2652 4.79981 20 4.79981ZM10 3.79981C10 3.53459 10.1054 3.28023 10.2929 3.0927C10.4804 2.90516 10.7348 2.7998 11 2.7998H13C13.2652 2.7998 13.5196 2.90516 13.7071 3.0927C13.8946 3.28023 14 3.53459 14 3.79981V4.79981H10V3.79981ZM17 17.7998C17 18.065 16.8946 18.3194 16.7071 18.5069C16.5196 18.6945 16.2652 18.7998 16 18.7998H8C7.73478 18.7998 7.48043 18.6945 7.29289 18.5069C7.10536 18.3194 7 18.065 7 17.7998V6.79981H17V17.7998ZM14 16.7998C14.2652 16.7998 14.5196 16.6945 14.7071 16.5069C14.8946 16.3194 15 16.065 15 15.7998V9.79981C15 9.53459 14.8946 9.28024 14.7071 9.0927C14.5196 8.90516 14.2652 8.79981 14 8.79981C13.7348 8.79981 13.4804 8.90516 13.2929 9.0927C13.1054 9.28024 13 9.53459 13 9.79981V15.7998C13 16.065 13.1054 16.3194 13.2929 16.5069C13.4804 16.6945 13.7348 16.7998 14 16.7998Z" fill="#EB5757"/>
</svg>
