<svg width="28" height="27" viewBox="0 0 28 27" fill="none" xmlns="http://www.w3.org/2000/svg">
<g clip-path="url(#clip0)">
<path d="M27.1453 7.78735C27.0833 6.37998 26.8557 5.41242 26.5297 4.57402C26.1934 3.68408 25.6759 2.88731 24.998 2.22496C24.3357 1.5523 23.5336 1.02961 22.654 0.698533C21.8108 0.372511 20.8482 0.144921 19.4409 0.0828699C18.023 0.0155634 17.5729 0 13.9767 0C10.3806 0 9.93044 0.0155634 8.51781 0.0776148C7.11044 0.139666 6.14288 0.367458 5.30468 0.693278C4.41454 1.02961 3.61778 1.54704 2.95542 2.22496C2.28276 2.88731 1.76028 3.68933 1.429 4.56896C1.10298 5.41242 0.87539 6.37472 0.813339 7.7821C0.746032 9.19998 0.730469 9.65011 0.730469 13.2463C0.730469 16.8424 0.746032 17.2925 0.808083 18.7052C0.870135 20.1125 1.09793 21.0801 1.42395 21.9185C1.76028 22.8084 2.28276 23.6052 2.95542 24.2676C3.61778 24.9402 4.4198 25.4629 5.29943 25.794C6.14288 26.12 7.10519 26.3476 8.51276 26.4096C9.92519 26.4719 10.3755 26.4873 13.9717 26.4873C17.5678 26.4873 18.0179 26.4719 19.4306 26.4096C20.8379 26.3476 21.8055 26.12 22.6437 25.794C24.4238 25.1058 25.8312 23.6984 26.5194 21.9185C26.8452 21.075 27.073 20.1125 27.135 18.7052C27.1971 17.2925 27.2127 16.8424 27.2127 13.2463C27.2127 9.65011 27.2074 9.19998 27.1453 7.78735ZM24.7601 18.6017C24.7031 19.8953 24.4858 20.5938 24.3047 21.0595C23.8597 22.2134 22.9438 23.1292 21.7899 23.5743C21.3242 23.7554 20.6207 23.9727 19.3321 24.0295C17.9351 24.0917 17.5161 24.1071 13.982 24.1071C10.4479 24.1071 10.0236 24.0917 8.63161 24.0295C7.33803 23.9727 6.6395 23.7554 6.17381 23.5743C5.59958 23.3621 5.07689 23.0257 4.65264 22.5859C4.21282 22.1564 3.87649 21.639 3.66427 21.0647C3.48316 20.599 3.26588 19.8953 3.20909 18.6069C3.14683 17.2099 3.13147 16.7907 3.13147 13.2566C3.13147 9.72247 3.14683 9.29821 3.20909 7.9064C3.26588 6.61282 3.48316 5.91429 3.66427 5.4486C3.87649 4.87417 4.21282 4.35168 4.6579 3.92723C5.0872 3.48741 5.60463 3.15108 6.17906 2.93905C6.64475 2.75795 7.34854 2.54067 8.63686 2.48367C10.0339 2.42162 10.4531 2.40606 13.987 2.40606C17.5264 2.40606 17.9454 2.42162 19.3374 2.48367C20.631 2.54067 21.3295 2.75795 21.7952 2.93905C22.3694 3.15108 22.8921 3.48741 23.3164 3.92723C23.7562 4.35674 24.0925 4.87417 24.3047 5.4486C24.4858 5.91429 24.7031 6.61787 24.7601 7.9064C24.8222 9.30347 24.8377 9.72247 24.8377 13.2566C24.8377 16.7907 24.8222 17.2046 24.7601 18.6017Z" fill="white"/>
<path d="M13.9761 6.44141C10.2197 6.44141 7.17188 9.489 7.17188 13.2456C7.17188 17.0023 10.2197 20.0499 13.9761 20.0499C17.7327 20.0499 20.7803 17.0023 20.7803 13.2456C20.7803 9.489 17.7327 6.44141 13.9761 6.44141ZM13.9761 17.6594C11.5391 17.6594 9.56237 15.6828 9.56237 13.2456C9.56237 10.8085 11.5391 8.8319 13.9761 8.8319C16.4133 8.8319 18.3898 10.8085 18.3898 13.2456C18.3898 15.6828 16.4133 17.6594 13.9761 17.6594Z" fill="white"/>
<path d="M22.6381 6.17246C22.6381 7.04967 21.9268 7.76094 21.0494 7.76094C20.1722 7.76094 19.4609 7.04967 19.4609 6.17246C19.4609 5.29505 20.1722 4.58398 21.0494 4.58398C21.9268 4.58398 22.6381 5.29505 22.6381 6.17246Z" fill="white"/>
</g>
<defs>
<clipPath id="clip0">
<rect width="26.4873" height="26.4873" fill="white" transform="translate(0.683594)"/>
</clipPath>
</defs>
</svg>
