<svg width="27" height="27" viewBox="0 0 27 27" fill="none" xmlns="http://www.w3.org/2000/svg">
<g clip-path="url(#clip0)">
<path d="M27 5.03066C26.015 5.46274 24.9655 5.74913 23.8712 5.88819C24.9969 5.21607 25.8561 4.15989 26.26 2.88684C25.2105 3.51261 24.0517 3.95461 22.8167 4.20128C21.8201 3.14013 20.3997 2.48291 18.8502 2.48291C15.8439 2.48291 13.4236 4.92306 13.4236 7.91447C13.4236 8.34489 13.46 8.75875 13.5494 9.15275C9.035 8.93258 5.04038 6.76889 2.35688 3.47287C1.88838 4.2857 1.61358 5.21607 1.61358 6.21763C1.61358 8.09823 2.58202 9.76527 4.02558 10.7304C3.15315 10.7139 2.29728 10.4606 1.57219 10.0616C1.57219 10.0782 1.57219 10.0997 1.57219 10.1212C1.57219 12.76 3.45445 14.9518 5.92273 15.4567C5.48073 15.5776 4.99899 15.6355 4.49904 15.6355C4.15139 15.6355 3.80044 15.6157 3.471 15.5428C4.17457 17.6933 6.17105 19.2742 8.54498 19.3255C6.69749 20.7708 4.3517 21.6415 1.81223 21.6415C1.36691 21.6415 0.939804 21.6217 0.512695 21.567C2.91808 23.1182 5.76878 24.0039 8.84296 24.0039C18.8353 24.0039 24.2983 15.7266 24.2983 8.55182C24.2983 8.31178 24.2901 8.08002 24.2785 7.84991C25.3562 7.08509 26.2617 6.12989 27 5.03066Z" fill="white"/>
</g>
<defs>
<clipPath id="clip0">
<rect width="26.4873" height="26.4873" fill="white" transform="translate(0.512695)"/>
</clipPath>
</defs>
</svg>
