<svg width="14" height="14" viewBox="0 0 14 14" fill="none" xmlns="http://www.w3.org/2000/svg">
<g opacity="0.4" clip-path="url(#clip0)">
<path d="M4.8125 5.90536H9.1875C9.42922 5.90536 9.625 5.70958 9.625 5.46786V5.03036C9.625 4.78864 9.42922 4.59286 9.1875 4.59286H4.8125C4.57078 4.59286 4.375 4.78864 4.375 5.03036V5.46786C4.375 5.70958 4.57078 5.90536 4.8125 5.90536ZM4.375 8.09286C4.375 8.33458 4.57078 8.53036 4.8125 8.53036H9.1875C9.42922 8.53036 9.625 8.33458 9.625 8.09286V7.65536C9.625 7.41364 9.42922 7.21786 9.1875 7.21786H4.8125C4.57078 7.21786 4.375 7.41364 4.375 7.65536V8.09286ZM7 11.405C6.55102 11.405 6.10203 11.2666 5.71867 10.9897L0 6.85856V12.6866C0 13.4115 0.587617 13.9991 1.3125 13.9991H12.6875C13.4124 13.9991 14 13.4115 14 12.6866V6.85856L8.28133 10.9897C7.89797 11.2664 7.44898 11.405 7 11.405ZM13.4971 4.45477C13.2552 4.26501 13.0257 4.08645 12.6875 3.83106V2.62411C12.6875 1.89922 12.0999 1.31161 11.375 1.31161H9.25449C9.17137 1.25145 9.09398 1.19512 9.00731 1.13223C8.54766 0.796725 7.63438 -0.0104625 7 -0.000892197C6.36562 -0.0104625 5.45262 0.796725 4.9927 1.13223C4.90602 1.19512 4.82863 1.25145 4.74551 1.31161H2.625C1.90012 1.31161 1.3125 1.89922 1.3125 2.62411V3.83106C0.974258 4.08618 0.744844 4.26501 0.502852 4.45477C0.346215 4.57753 0.219547 4.7343 0.13243 4.91322C0.0453121 5.09214 2.69556e-05 5.28854 0 5.48755L0 5.77876L2.625 7.67505V2.62411H11.375V7.67505L14 5.77876V5.48755C14 5.0845 13.8146 4.7036 13.4971 4.45477Z" fill="white"/>
</g>
<defs>
<clipPath id="clip0">
<rect width="14" height="14" fill="white"/>
</clipPath>
</defs>
</svg>
