<svg width="24" height="25" viewBox="0 0 24 25" fill="none" xmlns="http://www.w3.org/2000/svg">
<g clip-path="url(#clip0)">
<path fill-rule="evenodd" clip-rule="evenodd" d="M12 2.5C9.87827 2.5 7.84344 3.34285 6.34315 4.84315C4.84285 6.34344 4 8.37827 4 10.5C4 13.5981 6.01574 16.6042 8.22595 18.9373C9.31061 20.0822 10.3987 21.0195 11.2167 21.6708C11.5211 21.9133 11.787 22.1152 12 22.2726C12.213 22.1152 12.4789 21.9133 12.7833 21.6708C13.6013 21.0195 14.6894 20.0822 15.774 18.9373C17.9843 16.6042 20 13.5981 20 10.5C20 8.37827 19.1571 6.34344 17.6569 4.84315C16.1566 3.34285 14.1217 2.5 12 2.5ZM12 23.5C11.4453 24.3321 11.445 24.3319 11.4448 24.3317L11.4419 24.3298L11.4352 24.3253L11.4123 24.3098C11.3928 24.2966 11.3651 24.2776 11.3296 24.253C11.2585 24.2038 11.1565 24.1321 11.0278 24.0392C10.7705 23.8534 10.4064 23.5822 9.97082 23.2354C9.10133 22.543 7.93939 21.5428 6.77405 20.3127C4.48426 17.8958 2 14.4019 2 10.5C2 7.84784 3.05357 5.3043 4.92893 3.42893C6.8043 1.55357 9.34784 0.5 12 0.5C14.6522 0.5 17.1957 1.55357 19.0711 3.42893C20.9464 5.3043 22 7.84784 22 10.5C22 14.4019 19.5157 17.8958 17.226 20.3127C16.0606 21.5428 14.8987 22.543 14.0292 23.2354C13.5936 23.5822 13.2295 23.8534 12.9722 24.0392C12.8435 24.1321 12.7415 24.2038 12.6704 24.253C12.6349 24.2776 12.6072 24.2966 12.5877 24.3098L12.5648 24.3253L12.5581 24.3298L12.556 24.3312C12.5557 24.3314 12.5547 24.3321 12 23.5ZM12 23.5L12.5547 24.3321C12.2188 24.556 11.7807 24.5556 11.4448 24.3317L12 23.5Z" fill="#111111"/>
<path fill-rule="evenodd" clip-rule="evenodd" d="M12 8.5C10.8954 8.5 10 9.39543 10 10.5C10 11.6046 10.8954 12.5 12 12.5C13.1046 12.5 14 11.6046 14 10.5C14 9.39543 13.1046 8.5 12 8.5ZM8 10.5C8 8.29086 9.79086 6.5 12 6.5C14.2091 6.5 16 8.29086 16 10.5C16 12.7091 14.2091 14.5 12 14.5C9.79086 14.5 8 12.7091 8 10.5Z" fill="#111111"/>
</g>
<defs>
<clipPath id="clip0">
<rect width="24" height="24" fill="white" transform="translate(0 0.5)"/>
</clipPath>
</defs>
</svg>
