<svg width="28" height="28" viewBox="0 0 28 28" fill="none" xmlns="http://www.w3.org/2000/svg">
<path d="M14.0875 7C14.4922 5.00391 16.2586 3.5 18.375 3.5C20.4914 3.5 22.2578 5.00391 22.6625 7H28V8.75H22.6625C22.2578 10.7461 20.4914 12.25 18.375 12.25C16.2586 12.25 14.4922 10.7461 14.0875 8.75H0V7H14.0875ZM18.375 10.5C19.8242 10.5 21 9.32422 21 7.875C21 6.42578 19.8242 5.25 18.375 5.25C16.9258 5.25 15.75 6.42578 15.75 7.875C15.75 9.32422 16.9258 10.5 18.375 10.5Z" fill="#9D9D9D"/>
<path d="M5.3375 19.25C5.74219 17.2539 7.50859 15.75 9.625 15.75C11.7414 15.75 13.5078 17.2539 13.9125 19.25H28V21H13.9125C13.5078 22.9961 11.7414 24.5 9.625 24.5C7.50859 24.5 5.74219 22.9961 5.3375 21H0V19.25H5.3375ZM9.625 22.75C11.0742 22.75 12.25 21.5742 12.25 20.125C12.25 18.6758 11.0742 17.5 9.625 17.5C8.17578 17.5 7 18.6758 7 20.125C7 21.5742 8.17578 22.75 9.625 22.75Z" fill="#9D9D9D"/>
</svg>
