<svg width="29" height="28" viewBox="0 0 29 28" fill="none" xmlns="http://www.w3.org/2000/svg">
<g clip-path="url(#clip0)">
<path d="M14.5875 7C14.9922 5.00391 16.7586 3.5 18.875 3.5C20.9914 3.5 22.7578 5.00391 23.1625 7H28.5V8.75H23.1625C22.7578 10.7461 20.9914 12.25 18.875 12.25C16.7586 12.25 14.9922 10.7461 14.5875 8.75H0.5V7H14.5875ZM18.875 10.5C20.3242 10.5 21.5 9.32422 21.5 7.875C21.5 6.42578 20.3242 5.25 18.875 5.25C17.4258 5.25 16.25 6.42578 16.25 7.875C16.25 9.32422 17.4258 10.5 18.875 10.5Z" fill="#9D9D9D"/>
<path d="M5.8375 19.25C6.24219 17.2539 8.00859 15.75 10.125 15.75C12.2414 15.75 14.0078 17.2539 14.4125 19.25H28.5V21H14.4125C14.0078 22.9961 12.2414 24.5 10.125 24.5C8.00859 24.5 6.24219 22.9961 5.8375 21H0.5V19.25H5.8375ZM10.125 22.75C11.5742 22.75 12.75 21.5742 12.75 20.125C12.75 18.6758 11.5742 17.5 10.125 17.5C8.67578 17.5 7.5 18.6758 7.5 20.125C7.5 21.5742 8.67578 22.75 10.125 22.75Z" fill="#9D9D9D"/>
</g>
<defs>
<clipPath id="clip0">
<rect width="28" height="28" fill="white" transform="translate(0.5)"/>
</clipPath>
</defs>
</svg>
