<svg width="17" height="17" viewBox="0 0 17 17" fill="none" xmlns="http://www.w3.org/2000/svg">
<g clip-path="url(#clip0)">
<path fill-rule="evenodd" clip-rule="evenodd" d="M8.33268 1.83333C6.91819 1.83333 5.56164 2.39524 4.56145 3.39543C3.56125 4.39562 2.99935 5.75218 2.99935 7.16667C2.99935 9.23204 4.34317 11.2362 5.81665 12.7915C6.53976 13.5548 7.26513 14.1796 7.81047 14.6139C8.01343 14.7755 8.1907 14.9101 8.33268 15.0151C8.47467 14.9101 8.65194 14.7755 8.8549 14.6139C9.40024 14.1796 10.1256 13.5548 10.8487 12.7915C12.3222 11.2362 13.666 9.23204 13.666 7.16667C13.666 5.75218 13.1041 4.39562 12.1039 3.39543C11.1037 2.39524 9.74717 1.83333 8.33268 1.83333ZM8.33268 15.8333C7.96288 16.388 7.96271 16.3879 7.96252 16.3878L7.96062 16.3865L7.95617 16.3835L7.94089 16.3732C7.92791 16.3644 7.9094 16.3517 7.88572 16.3353C7.83837 16.3025 7.77032 16.2547 7.68454 16.1928C7.51305 16.0689 7.27026 15.8881 6.9799 15.6569C6.40024 15.1954 5.62561 14.5286 4.84871 13.7085C3.32219 12.0972 1.66602 9.76796 1.66602 7.16667C1.66602 5.39856 2.36839 3.70286 3.61864 2.45262C4.86888 1.20238 6.56457 0.5 8.33268 0.5C10.1008 0.5 11.7965 1.20238 13.0467 2.45262C14.297 3.70286 14.9993 5.39856 14.9993 7.16667C14.9993 9.76796 13.3432 12.0972 11.8167 13.7085C11.0398 14.5286 10.2651 15.1954 9.68547 15.6569C9.39511 15.8881 9.15232 16.0689 8.98082 16.1928C8.89504 16.2547 8.827 16.3025 8.77964 16.3353C8.75597 16.3517 8.73745 16.3644 8.72447 16.3732L8.70919 16.3835L8.70475 16.3865L8.70334 16.3875C8.70315 16.3876 8.70248 16.388 8.33268 15.8333ZM8.33268 15.8333L8.70248 16.388C8.47855 16.5373 8.18645 16.5371 7.96252 16.3878L8.33268 15.8333Z" fill="#6F6F6F"/>
<path fill-rule="evenodd" clip-rule="evenodd" d="M8.33268 5.83333C7.5963 5.83333 6.99935 6.43029 6.99935 7.16667C6.99935 7.90305 7.5963 8.5 8.33268 8.5C9.06906 8.5 9.66602 7.90305 9.66602 7.16667C9.66602 6.43029 9.06906 5.83333 8.33268 5.83333ZM5.66602 7.16667C5.66602 5.69391 6.85992 4.5 8.33268 4.5C9.80544 4.5 10.9993 5.69391 10.9993 7.16667C10.9993 8.63943 9.80544 9.83333 8.33268 9.83333C6.85992 9.83333 5.66602 8.63943 5.66602 7.16667Z" fill="#6F6F6F"/>
</g>
<defs>
<clipPath id="clip0">
<rect width="16" height="16" fill="white" transform="translate(0.333008 0.5)"/>
</clipPath>
</defs>
</svg>
