<svg width="14" height="14" viewBox="0 0 14 14" fill="none" xmlns="http://www.w3.org/2000/svg">
<g opacity="0.4" clip-path="url(#clip0)">
<path d="M13.6005 9.89269L10.538 8.58019C10.4072 8.52444 10.2618 8.51269 10.1237 8.54672C9.98562 8.58075 9.86232 8.65871 9.77238 8.76887L8.41613 10.4259C6.28762 9.42232 4.57467 7.70937 3.57109 5.58087L5.22813 4.22462C5.33851 4.13485 5.41663 4.01155 5.45067 3.87341C5.48472 3.73526 5.47283 3.58978 5.4168 3.459L4.1043 0.396509C4.0428 0.255527 3.93405 0.14042 3.79678 0.0710366C3.65951 0.00165297 3.50233 -0.0176587 3.35234 0.0164317L0.508594 0.67268C0.363992 0.706071 0.234977 0.78749 0.142607 0.903647C0.0502374 1.0198 -3.33104e-05 1.16384 1.65599e-08 1.31225C1.65599e-08 8.3259 5.68477 13.9997 12.6875 13.9997C12.836 13.9998 12.9801 13.9496 13.0963 13.8572C13.2125 13.7648 13.2939 13.6358 13.3273 13.4911L13.9836 10.6474C14.0175 10.4967 13.9977 10.3389 13.9278 10.2011C13.8579 10.0634 13.7422 9.95431 13.6005 9.89269Z" fill="white"/>
</g>
<defs>
<clipPath id="clip0">
<rect width="14" height="14" fill="white"/>
</clipPath>
</defs>
</svg>
