<svg width="44" height="44" viewBox="0 0 44 44" fill="none" xmlns="http://www.w3.org/2000/svg">
<circle cx="22" cy="22" r="22" fill="#ECECEC"/>
<path d="M30.01 25.38C28.78 25.38 27.59 25.18 26.48 24.82C26.13 24.7 25.74 24.79 25.47 25.06L23.9 27.03C21.07 25.68 18.42 23.13 17.01 20.2L18.96 18.54C19.23 18.26 19.31 17.87 19.2 17.52C18.83 16.41 18.64 15.22 18.64 13.99C18.64 13.45 18.19 13 17.65 13H14.19C13.65 13 13 13.24 13 13.99C13 23.28 20.73 31 30.01 31C30.72 31 31 30.37 31 29.82V26.37C31 25.83 30.55 25.38 30.01 25.38Z" fill="#323232"/>
</svg>
