<svg width="40" height="40" viewBox="0 0 40 40" fill="none" xmlns="http://www.w3.org/2000/svg">
<path d="M24.8574 2.85718C23.7529 2.85718 22.8574 3.75261 22.8574 4.85718V18.0001C22.8574 19.1046 23.7529 20.0001 24.8574 20.0001H33.286C33.8383 20.0001 34.2906 20.4493 34.2427 20.9995C33.7925 26.1708 29.8834 30.367 24.8481 31.2551C23.7603 31.4469 22.8574 32.3241 22.8574 33.4286V35.1429C22.8574 36.2475 23.7568 37.1552 24.854 37.0274C33.3699 36.0354 40.0003 28.778 40.0003 20.0001V4.85718C40.0003 3.75261 39.1049 2.85718 38.0003 2.85718H24.8574Z" fill="#C4C4C4"/>
<path d="M0 18.0001C0 19.1046 0.895431 20.0001 2 20.0001H10.4286C10.9808 20.0001 11.4331 20.4493 11.3852 20.9995C10.9351 26.1708 7.02596 30.367 1.99067 31.2551C0.902889 31.4469 0 32.3241 0 33.4286V35.1429C0 36.2475 0.899383 37.1552 1.99653 37.0274C10.5125 36.0354 17.1429 28.778 17.1429 20.0001V4.85718C17.1429 3.75261 16.2475 2.85718 15.1429 2.85718H2C0.89543 2.85718 0 3.75261 0 4.85718V18.0001Z" fill="#C4C4C4"/>
</svg>
