<svg width="25" height="24" viewBox="0 0 25 24" fill="none" xmlns="http://www.w3.org/2000/svg">
<path fill-rule="evenodd" clip-rule="evenodd" d="M11.5 4C7.63401 4 4.5 7.13401 4.5 11C4.5 14.866 7.63401 18 11.5 18C15.366 18 18.5 14.866 18.5 11C18.5 7.13401 15.366 4 11.5 4ZM2.5 11C2.5 6.02944 6.52944 2 11.5 2C16.4706 2 20.5 6.02944 20.5 11C20.5 15.9706 16.4706 20 11.5 20C6.52944 20 2.5 15.9706 2.5 11Z" fill="#6F6F6F"/>
<path fill-rule="evenodd" clip-rule="evenodd" d="M16.4433 15.9428C16.8338 15.5523 17.467 15.5523 17.8575 15.9428L22.2075 20.2928C22.598 20.6833 22.598 21.3165 22.2075 21.707C21.817 22.0975 21.1838 22.0975 20.7933 21.707L16.4433 17.357C16.0528 16.9665 16.0528 16.3333 16.4433 15.9428Z" fill="#6F6F6F"/>
</svg>
