<svg width="33" height="32" viewBox="0 0 33 32" fill="none" xmlns="http://www.w3.org/2000/svg">
<path d="M25.8334 13.3334C25.4798 13.3334 25.1407 13.4739 24.8906 13.7239C24.6406 13.974 24.5001 14.3131 24.5001 14.6667V19.1734L22.5267 17.2001C21.83 16.5088 20.8883 16.1209 19.9067 16.1209C18.9252 16.1209 17.9835 16.5088 17.2867 17.2001L16.3534 18.1467L13.0467 14.8267C12.35 14.1355 11.4083 13.7476 10.4267 13.7476C9.44525 13.7476 8.50352 14.1355 7.80675 14.8267L5.83341 16.8134V9.33341C5.83341 8.97979 5.97389 8.64065 6.22394 8.39061C6.47399 8.14056 6.81313 8.00008 7.16675 8.00008H17.8334C18.187 8.00008 18.5262 7.85961 18.7762 7.60956C19.0263 7.35951 19.1667 7.02037 19.1667 6.66675C19.1667 6.31313 19.0263 5.97399 18.7762 5.72394C18.5262 5.47389 18.187 5.33341 17.8334 5.33341H7.16675C6.10588 5.33341 5.08847 5.75484 4.33832 6.50499C3.58818 7.25513 3.16675 8.27255 3.16675 9.33341V25.6267C3.17026 26.6087 3.56191 27.5495 4.25629 28.2439C4.95066 28.9383 5.89143 29.3299 6.87342 29.3334H23.4601C23.8214 29.3305 24.1805 29.2767 24.5267 29.1734V29.1734C25.2967 28.9575 25.9745 28.4949 26.4562 27.8566C26.9379 27.2184 27.1969 26.4397 27.1934 25.6401V14.6667C27.1935 14.4894 27.1581 14.3138 27.0894 14.1503C27.0208 13.9867 26.9202 13.8386 26.7935 13.7144C26.6669 13.5902 26.5167 13.4926 26.3519 13.4272C26.187 13.3617 26.0107 13.3299 25.8334 13.3334ZM7.16675 26.6667C6.81313 26.6667 6.47399 26.5263 6.22394 26.2762C5.97389 26.0262 5.83341 25.687 5.83341 25.3334V20.5734L9.68675 16.7201C9.88162 16.5263 10.1453 16.4175 10.4201 16.4175C10.6949 16.4175 10.9585 16.5263 11.1534 16.7201L21.1134 26.6667H7.16675ZM24.5001 25.3334C24.4915 25.5916 24.4081 25.8417 24.2601 26.0534L18.2334 20.0001L19.1801 19.0667C19.2757 18.9692 19.3898 18.8917 19.5157 18.8388C19.6416 18.7859 19.7768 18.7586 19.9134 18.7586C20.05 18.7586 20.1852 18.7859 20.3111 18.8388C20.4371 18.8917 20.5512 18.9692 20.6467 19.0667L24.5001 22.9467V25.3334ZM28.5001 5.33341H27.1667V4.00008C27.1667 3.64646 27.0263 3.30732 26.7762 3.05727C26.5262 2.80722 26.187 2.66675 25.8334 2.66675C25.4798 2.66675 25.1407 2.80722 24.8906 3.05727C24.6406 3.30732 24.5001 3.64646 24.5001 4.00008V5.33341H23.1667C22.8131 5.33341 22.474 5.47389 22.2239 5.72394C21.9739 5.97399 21.8334 6.31313 21.8334 6.66675C21.8334 7.02037 21.9739 7.35951 22.2239 7.60956C22.474 7.85961 22.8131 8.00008 23.1667 8.00008H24.5001V9.33341C24.5001 9.68704 24.6406 10.0262 24.8906 10.2762C25.1407 10.5263 25.4798 10.6667 25.8334 10.6667C26.187 10.6667 26.5262 10.5263 26.7762 10.2762C27.0263 10.0262 27.1667 9.68704 27.1667 9.33341V8.00008H28.5001C28.8537 8.00008 29.1928 7.85961 29.4429 7.60956C29.6929 7.35951 29.8334 7.02037 29.8334 6.66675C29.8334 6.31313 29.6929 5.97399 29.4429 5.72394C29.1928 5.47389 28.8537 5.33341 28.5001 5.33341V5.33341Z" fill="black"/>
</svg>
