<svg width="54" height="80" viewBox="0 0 54 80" fill="none" xmlns="http://www.w3.org/2000/svg">
<g clip-path="url(#clip0)">
<path d="M27.2276 11.0349C27.4384 11.397 27.4955 11.8273 27.3864 12.2311C27.2773 12.6349 27.011 12.9793 26.6459 13.1884L8.73825 23.4338C8.49627 23.5717 8.22199 23.6442 7.94287 23.644C7.66376 23.6437 7.38961 23.5707 7.1479 23.4324C6.90618 23.294 6.70538 23.095 6.56562 22.8555C6.42586 22.6159 6.35204 22.3442 6.35156 22.0674V1.5767C6.35279 1.30024 6.42708 1.02894 6.56702 0.789824C6.70696 0.550709 6.90767 0.352136 7.14913 0.213898C7.39059 0.0756599 7.66438 0.00258506 7.94321 0.00195721C8.22203 0.00132935 8.49615 0.0731704 8.73825 0.21032L26.6359 10.4557C26.8814 10.5934 27.0855 10.7933 27.2276 11.0349Z" fill="#111111"/>
<path d="M44.7254 33.7978C44.9353 34.1604 44.9917 34.5906 44.8822 34.9943C44.7727 35.398 44.5062 35.7422 44.1412 35.9514L2.38669 59.8531C2.14515 59.9925 1.87077 60.0663 1.59127 60.0669C1.31178 60.0675 1.03707 59.9949 0.794919 59.8566C0.552766 59.7182 0.351743 59.5189 0.212166 59.2788C0.0725882 59.0387 -0.000597614 58.7663 3.67542e-06 58.4892V33.9117C0.00120271 33.3595 0.148747 32.8173 0.427854 32.3394C0.706961 31.8615 1.10783 31.4647 1.59029 31.1889L19.4879 20.9286C19.9713 20.6514 20.5198 20.5054 21.0782 20.5054C21.6366 20.5054 22.1852 20.6514 22.6685 20.9286L44.1387 33.2186C44.3822 33.3572 44.5845 33.557 44.7254 33.7978Z" fill="#111111"/>
<path d="M9.70681 73.965C10.0365 74.509 10.2093 75.1323 10.2061 75.767C10.2267 76.5124 10.0373 77.2487 9.65937 77.8933C9.28442 78.4944 8.73174 78.9663 8.07657 79.2448C7.28907 79.574 6.43926 79.7311 5.58503 79.7052H0.457156C0.365522 79.7082 0.276216 79.6763 0.207503 79.6161C0.175753 79.5833 0.150992 79.5444 0.134694 79.5019C0.118396 79.4594 0.110894 79.414 0.112634 79.3686V66.9548C0.110603 66.9093 0.117971 66.8639 0.134285 66.8214C0.150599 66.7788 0.175514 66.74 0.207503 66.7073C0.276216 66.6471 0.365522 66.6153 0.457156 66.6182H5.20057C6.01362 66.5967 6.82177 66.7495 7.56978 67.0662C8.19067 67.3384 8.71318 67.7917 9.06769 68.3658C9.42738 68.9842 9.60713 69.6894 9.58697 70.403C9.5881 70.8763 9.47512 71.3431 9.25743 71.7644C9.05898 72.1717 8.7559 72.52 8.37865 72.7743C8.93673 73.0227 9.40152 73.4394 9.70681 73.965ZM6.01444 69.8237C5.90009 69.7213 5.76645 69.6424 5.6212 69.5914C5.47595 69.5404 5.32197 69.5184 5.16811 69.5267H3.38808V71.7421H5.16811C5.32235 71.7501 5.47665 71.7276 5.62197 71.6757C5.7673 71.6238 5.90072 71.5437 6.01444 71.4401C6.12016 71.334 6.2025 71.2072 6.25622 71.0679C6.30994 70.9286 6.33387 70.7797 6.3265 70.6307C6.33445 70.482 6.31077 70.3333 6.25701 70.1943C6.20325 70.0553 6.1206 69.929 6.01444 69.8237ZM6.5437 76.4353C6.66913 76.3069 6.76663 76.1542 6.83018 75.9869C6.89374 75.8196 6.92199 75.6411 6.91319 75.4625C6.92387 75.2863 6.89643 75.1099 6.8327 74.9452C6.76898 74.7804 6.67044 74.631 6.5437 74.5071C6.26892 74.2672 5.91074 74.1429 5.54509 74.1605H3.38808V76.7893H5.5401C5.72278 76.8001 5.90579 76.7744 6.07822 76.7135C6.25064 76.6527 6.40895 76.5581 6.5437 76.4353Z" fill="#111111"/>
<path d="M22.7708 79.408C22.772 79.4521 22.7632 79.4959 22.7451 79.5362C22.7269 79.5765 22.6999 79.6122 22.666 79.6407C22.5819 79.7049 22.4772 79.7365 22.3714 79.7298H19.805C19.6779 79.7301 19.5546 79.6873 19.4554 79.6085C19.3505 79.5294 19.2708 79.422 19.2258 79.2991L18.6291 77.5787H14.0455L13.4563 79.2917C13.4216 79.4157 13.3449 79.5241 13.2391 79.5986C13.1332 79.6792 13.003 79.7219 12.8696 79.7199H10.3106C10.2055 79.727 10.1013 79.6972 10.016 79.6357C9.97972 79.6059 9.9512 79.5679 9.93295 79.5248C9.91469 79.4816 9.90722 79.4348 9.91119 79.3882C9.91346 79.3176 9.92869 79.248 9.95613 79.1828L14.7869 67.0339C14.8374 66.9052 14.9241 66.7935 15.0366 66.7121C15.1395 66.6353 15.2648 66.5936 15.3936 66.5933H17.3009C17.4299 66.5949 17.555 66.6374 17.6579 66.7146C17.7725 66.7928 17.8597 66.9044 17.9076 67.0339L22.7184 79.21C22.7471 79.2726 22.7648 79.3395 22.7708 79.408ZM17.6979 74.8707L16.3323 70.8979L14.9792 74.8707H17.6979Z" fill="#111111"/>
<path d="M22.5762 78.2598C22.581 78.1458 22.6154 78.0349 22.676 77.938L23.7421 76.0369C23.7796 75.9619 23.8377 75.8989 23.9096 75.8552C23.9816 75.8114 24.0646 75.7886 24.149 75.7894C24.2526 75.7941 24.3543 75.8185 24.4486 75.8612C25.007 76.1165 25.5846 76.3283 26.1762 76.4949C26.7458 76.6481 27.3336 76.7247 27.9237 76.7226C28.3281 76.735 28.7288 76.6438 29.0871 76.4577C29.2264 76.396 29.3451 76.2961 29.4291 76.1698C29.5131 76.0436 29.5591 75.8961 29.5615 75.7448C29.5609 75.6372 29.5367 75.531 29.4905 75.4335C29.4444 75.3361 29.3775 75.2497 29.2943 75.1805C29.0711 74.9983 28.8177 74.8559 28.5454 74.7597C28.2125 74.6342 27.7498 74.4849 27.1573 74.3116C26.3693 74.0945 25.6056 73.7984 24.878 73.4279C24.3339 73.1497 23.8713 72.737 23.5348 72.2299C23.2067 71.6776 23.0455 71.0436 23.0705 70.4031C23.0502 69.6298 23.2852 68.871 23.7396 68.2421C24.1942 67.6318 24.8103 67.1581 25.5196 66.8733C26.2853 66.5618 27.1061 66.4053 27.9337 66.4129C28.4925 66.4135 29.0494 66.4766 29.5939 66.601C30.1144 66.7156 30.6239 66.8746 31.1168 67.0763C31.5089 67.2317 31.8851 67.424 32.2403 67.6505C32.3163 67.6893 32.381 67.7467 32.4282 67.8174C32.4754 67.888 32.5035 67.9695 32.5099 68.054C32.4993 68.1748 32.459 68.2913 32.3925 68.3931L31.3165 70.3313C31.2842 70.4013 31.2321 70.4606 31.1665 70.5019C31.101 70.5432 31.0247 70.5648 30.947 70.564C30.8068 70.5551 30.6704 70.5153 30.5476 70.4476C30.0989 70.2148 29.6323 70.0178 29.152 69.8585C28.6842 69.7189 28.1976 69.6513 27.709 69.658C27.3597 69.6489 27.0144 69.7344 26.7104 69.9055C26.5911 69.9592 26.4891 70.0444 26.4155 70.1518C26.342 70.2593 26.2997 70.3848 26.2935 70.5145C26.2935 70.7769 26.4733 71.0095 26.8278 71.1902C27.3789 71.4521 27.9541 71.661 28.5454 71.814C29.3571 72.0399 30.1493 72.3296 30.9146 72.6804C31.4919 72.948 31.9923 73.3548 32.3701 73.8636C32.7604 74.4345 32.9539 75.1153 32.9218 75.8042C32.9391 76.5937 32.7021 77.368 32.2452 78.0147C31.779 78.6549 31.143 79.1544 30.4078 79.4578C29.5925 79.797 28.7154 79.9655 27.8314 79.9529C26.9398 79.9515 26.0521 79.8367 25.19 79.6113C24.3531 79.4024 23.5515 79.0729 22.8108 78.6335C22.7414 78.5979 22.683 78.5444 22.6417 78.4786C22.6004 78.4129 22.5778 78.3372 22.5762 78.2598Z" fill="#111111"/>
<path d="M32.9089 67.0813C32.9054 67.0178 32.9146 66.9543 32.9361 66.8944C32.9575 66.8344 32.9907 66.7793 33.0338 66.7322C33.0811 66.6884 33.137 66.6547 33.1979 66.6329C33.2589 66.6112 33.3236 66.6021 33.3883 66.606H42.2135C42.2777 66.6007 42.3423 66.6094 42.4027 66.6314C42.4632 66.6535 42.518 66.6884 42.5635 66.7336C42.6089 66.7789 42.6438 66.8335 42.6657 66.8935C42.6876 66.9536 42.696 67.0177 42.6903 67.0813V69.2422C42.6965 69.3722 42.6507 69.4994 42.563 69.5962C42.5166 69.6409 42.4614 69.6757 42.4008 69.6983C42.3403 69.7209 42.2756 69.7308 42.211 69.7274H39.4449V79.3465C39.4495 79.411 39.4405 79.4758 39.4186 79.5367C39.3967 79.5976 39.3623 79.6534 39.3175 79.7005C39.2179 79.7869 39.0876 79.8305 38.9555 79.8218H36.6413C36.5769 79.8275 36.512 79.8191 36.4512 79.7972C36.3905 79.7753 36.3353 79.7405 36.2896 79.6952C36.2439 79.6498 36.2088 79.5951 36.1867 79.5349C36.1646 79.4746 36.1562 79.4103 36.1619 79.3465V69.7348H33.3883C33.3232 69.7384 33.2582 69.7286 33.1972 69.706C33.1362 69.6834 33.0805 69.6486 33.0338 69.6036C32.947 69.5064 32.9021 69.3793 32.9089 69.2497V67.0813Z" fill="#111111"/>
<path d="M46.223 74.3068C46.1909 74.9635 46.3914 75.6106 46.7898 76.1361C47.1667 76.5965 47.731 76.8242 48.4849 76.8242C49.2389 76.8242 49.7931 76.5965 50.1676 76.1361C50.5612 75.6085 50.7588 74.9623 50.7268 74.3068V66.9823C50.7226 66.9328 50.7294 66.8831 50.7466 66.8364C50.7638 66.7898 50.7911 66.7475 50.8265 66.7124C50.8619 66.6772 50.9046 66.6502 50.9516 66.6331C50.9987 66.6161 51.0489 66.6094 51.0988 66.6135H53.5953C53.7011 66.6081 53.8049 66.6436 53.8849 66.7125C53.9213 66.7472 53.9497 66.7893 53.9682 66.8358C53.9867 66.8824 53.9949 66.9323 53.9923 66.9823V74.287C54.0219 75.3512 53.7995 76.4076 53.3432 77.3713C52.9331 78.2017 52.2726 78.8852 51.4533 79.3268C50.5347 79.7969 49.5108 80.0286 48.4774 80.0001C46.6633 80.0001 45.2877 79.505 44.3506 78.5149C43.4136 77.5247 42.9434 76.113 42.9401 74.2796V66.9823C42.9343 66.8839 42.9674 66.7871 43.0325 66.7125C43.0637 66.6782 43.1024 66.6514 43.1457 66.6342C43.189 66.617 43.2356 66.6099 43.2821 66.6135H45.8785C45.9249 66.611 45.9712 66.6186 46.0144 66.6357C46.0575 66.6528 46.0963 66.679 46.1282 66.7125C46.1912 66.7881 46.2233 66.8844 46.2181 66.9823L46.223 74.3068Z" fill="#111111"/>
</g>
<defs>
<clipPath id="clip0">
<rect width="54" height="80" fill="white"/>
</clipPath>
</defs>
</svg>
