<svg width="140" height="207" viewBox="0 0 140 207" fill="none" xmlns="http://www.w3.org/2000/svg">
<g clip-path="url(#clip0)">
<path d="M70.5888 28.5532C71.1353 29.49 71.2834 30.6033 71.0006 31.6483C70.7178 32.6932 70.0272 33.5842 69.0807 34.1254L22.6535 60.6353C22.0262 60.9922 21.3151 61.1797 20.5914 61.1791C19.8678 61.1784 19.1571 60.9896 18.5304 60.6315C17.9037 60.2735 17.3831 59.7587 17.0208 59.1389C16.6584 58.519 16.4671 57.8159 16.4658 57.0998V4.08002C16.469 3.3647 16.6616 2.6627 17.0244 2.04399C17.3872 1.42528 17.9076 0.91147 18.5336 0.553778C19.1596 0.196087 19.8694 0.00700624 20.5923 0.00538165C21.3152 0.00375707 22.0259 0.189646 22.6535 0.544519L69.0548 27.0544C69.6912 27.4108 70.2206 27.928 70.5888 28.5532Z" fill="white"/>
<path d="M115.955 87.4524C116.499 88.3904 116.645 89.5037 116.361 90.5483C116.077 91.5928 115.386 92.4833 114.44 93.0247L6.18771 154.87C5.5615 155.231 4.85014 155.422 4.12552 155.424C3.40091 155.425 2.68871 155.237 2.0609 154.879C1.4331 154.521 0.911926 154.006 0.550059 153.384C0.188192 152.763 -0.00154937 152.058 9.52888e-06 151.341V87.747C0.00311814 86.3181 0.385641 84.9151 1.10925 83.6786C1.83286 82.4421 2.87215 81.4155 4.12299 80.7016L50.5243 54.1533C51.7774 53.4359 53.1995 53.0581 54.6473 53.0581C56.095 53.0581 57.5171 53.4359 58.7702 54.1533L114.434 85.9536C115.065 86.3123 115.59 86.8292 115.955 87.4524Z" fill="white"/>
<path d="M25.1647 191.385C26.0195 192.793 26.4673 194.406 26.4592 196.048C26.5125 197.976 26.0216 199.882 25.0417 201.55C24.0696 203.105 22.6367 204.326 20.9381 205.047C18.8965 205.898 16.6933 206.305 14.4786 206.238H1.1841C0.946529 206.246 0.714994 206.163 0.536849 206.007C0.454534 205.922 0.390339 205.822 0.348085 205.712C0.305831 205.602 0.286381 205.485 0.290894 205.367V173.246C0.285628 173.129 0.304729 173.011 0.347024 172.901C0.389319 172.791 0.453916 172.69 0.536849 172.606C0.714994 172.45 0.946529 172.368 1.1841 172.375H13.4818C15.5898 172.32 17.685 172.715 19.6242 173.535C21.2339 174.239 22.5886 175.412 23.5077 176.897C24.4402 178.497 24.9063 180.322 24.854 182.168C24.8569 183.393 24.564 184.601 23.9996 185.691C23.4851 186.745 22.6994 187.646 21.7213 188.304C23.1682 188.947 24.3732 190.025 25.1647 191.385ZM15.5919 180.67C15.2954 180.405 14.9489 180.2 14.5724 180.068C14.1958 179.937 13.7966 179.88 13.3977 179.901H8.7828V185.633H13.3977C13.7976 185.654 14.1976 185.596 14.5744 185.462C14.9511 185.327 15.297 185.12 15.5919 184.852C15.866 184.577 16.0794 184.249 16.2187 183.889C16.358 183.528 16.42 183.143 16.4009 182.758C16.4215 182.373 16.3601 181.988 16.2208 181.628C16.0814 181.269 15.8671 180.942 15.5919 180.67ZM16.964 197.777C17.2892 197.445 17.542 197.05 17.7068 196.617C17.8715 196.184 17.9448 195.722 17.922 195.26C17.9497 194.804 17.8785 194.348 17.7133 193.921C17.5481 193.495 17.2926 193.108 16.964 192.788C16.2516 192.167 15.323 191.845 14.375 191.891H8.7828V198.693H14.3621C14.8357 198.721 15.3102 198.654 15.7572 198.497C16.2042 198.34 16.6147 198.095 16.964 197.777Z" fill="white"/>
<path d="M59.0359 205.469C59.039 205.583 59.0162 205.697 58.9691 205.801C58.9221 205.905 58.852 205.997 58.764 206.071C58.5462 206.237 58.2747 206.319 58.0003 206.302H51.3465C51.0171 206.303 50.6974 206.192 50.4404 205.988C50.1683 205.783 49.9616 205.505 49.8449 205.187L48.298 200.736H36.4145L34.887 205.168C34.7972 205.489 34.5983 205.77 34.3239 205.962C34.0495 206.171 33.7119 206.282 33.366 206.276H26.7316C26.4591 206.294 26.1888 206.217 25.9679 206.058C25.8737 205.981 25.7998 205.883 25.7524 205.771C25.7051 205.66 25.6858 205.539 25.6961 205.418C25.7019 205.235 25.7414 205.055 25.8126 204.886L38.3368 173.451C38.4678 173.118 38.6924 172.829 38.9841 172.618C39.251 172.42 39.5757 172.312 39.9096 172.311H44.8546C45.1891 172.315 45.5135 172.425 45.7802 172.625C46.0772 172.827 46.3034 173.116 46.4274 173.451L58.8999 204.957C58.9743 205.119 59.0202 205.292 59.0359 205.469ZM45.8838 193.729L42.3433 183.449L38.8352 193.729H45.8838Z" fill="white"/>
<path d="M58.5303 202.497C58.5428 202.202 58.632 201.916 58.7892 201.665L61.5529 196.746C61.6502 196.552 61.8008 196.389 61.9874 196.275C62.174 196.162 62.389 196.103 62.6079 196.105C62.8765 196.117 63.1401 196.181 63.3846 196.291C64.8325 196.952 66.33 197.5 67.8636 197.931C69.3404 198.327 70.8642 198.525 72.3944 198.52C73.4426 198.552 74.4814 198.316 75.4105 197.835C75.7717 197.675 76.0793 197.416 76.2972 197.09C76.515 196.763 76.6341 196.381 76.6403 195.99C76.6387 195.711 76.576 195.437 76.4564 195.184C76.3368 194.932 76.1633 194.709 75.9478 194.53C75.3691 194.058 74.7121 193.69 74.006 193.441C73.143 193.116 71.9434 192.73 70.4073 192.282C68.3642 191.72 66.3843 190.953 64.4979 189.995C63.0873 189.275 61.888 188.207 61.0157 186.895C60.165 185.466 59.7471 183.825 59.8118 182.168C59.7593 180.167 60.3684 178.204 61.5465 176.577C62.7252 174.998 64.3224 173.772 66.1613 173.035C68.1466 172.229 70.2746 171.824 72.4202 171.843C73.8689 171.845 75.3128 172.008 76.7245 172.33C78.0739 172.627 79.3949 173.038 80.6727 173.56C81.6892 173.962 82.6645 174.46 83.5853 175.046C83.7824 175.146 83.9501 175.295 84.0725 175.478C84.1949 175.66 84.2679 175.871 84.2843 176.09C84.2569 176.403 84.1524 176.704 83.9801 176.967L81.1905 181.982C81.1067 182.164 80.9716 182.317 80.8016 182.424C80.6316 182.531 80.4339 182.586 80.2325 182.584C79.869 182.561 79.5153 182.459 79.1969 182.283C78.0337 181.681 76.8239 181.171 75.5788 180.759C74.3659 180.398 73.1042 180.223 71.8377 180.24C70.9319 180.217 70.0367 180.438 69.2487 180.881C68.9395 181.02 68.6749 181.24 68.4842 181.518C68.2935 181.796 68.184 182.121 68.1678 182.456C68.1678 183.135 68.6338 183.737 69.5529 184.205C70.9818 184.882 72.473 185.423 74.006 185.819C76.1104 186.403 78.1644 187.153 80.1484 188.061C81.645 188.753 82.9424 189.806 83.9219 191.122C84.9338 192.599 85.4356 194.361 85.3523 196.144C85.397 198.186 84.7826 200.19 83.5982 201.863C82.3895 203.52 80.7406 204.812 78.8345 205.597C76.7208 206.475 74.4468 206.911 72.1549 206.878C69.8434 206.875 67.542 206.578 65.307 205.994C63.137 205.454 61.0589 204.601 59.1387 203.464C58.9587 203.372 58.8072 203.234 58.7002 203.064C58.5931 202.893 58.5344 202.698 58.5303 202.497Z" fill="white"/>
<path d="M85.3203 173.573C85.3111 173.409 85.335 173.244 85.3906 173.089C85.4461 172.934 85.5322 172.792 85.6439 172.67C85.7666 172.557 85.9114 172.469 86.0695 172.413C86.2275 172.357 86.3954 172.333 86.563 172.343H109.443C109.61 172.33 109.777 172.352 109.934 172.409C110.091 172.466 110.233 172.556 110.35 172.673C110.468 172.791 110.559 172.932 110.616 173.087C110.672 173.243 110.694 173.408 110.679 173.573V179.165C110.695 179.501 110.577 179.83 110.349 180.08C110.229 180.196 110.086 180.286 109.929 180.345C109.772 180.403 109.604 180.429 109.437 180.42H102.265V205.309C102.277 205.476 102.254 205.644 102.197 205.801C102.14 205.959 102.051 206.103 101.935 206.225C101.677 206.449 101.339 206.562 100.997 206.539H94.9966C94.8297 206.554 94.6615 206.532 94.504 206.475C94.3465 206.419 94.2034 206.329 94.0849 206.211C93.9664 206.094 93.8754 205.953 93.8182 205.797C93.761 205.641 93.7391 205.474 93.7539 205.309V180.439H86.563C86.3944 180.448 86.2257 180.423 86.0675 180.365C85.9094 180.306 85.7651 180.216 85.6439 180.1C85.4188 179.848 85.3026 179.519 85.3203 179.184V173.573Z" fill="white"/>
<path d="M119.838 192.269C119.755 193.968 120.275 195.642 121.307 197.002C122.285 198.193 123.748 198.783 125.702 198.783C127.657 198.783 129.094 198.193 130.065 197.002C131.085 195.637 131.598 193.965 131.515 192.269V173.317C131.504 173.189 131.521 173.06 131.566 172.939C131.611 172.819 131.681 172.709 131.773 172.618C131.865 172.527 131.976 172.457 132.098 172.413C132.219 172.369 132.35 172.352 132.479 172.362H138.951C139.226 172.348 139.495 172.44 139.702 172.619C139.797 172.708 139.87 172.817 139.918 172.938C139.966 173.058 139.988 173.187 139.981 173.317V192.218C140.057 194.971 139.481 197.705 138.298 200.198C137.235 202.347 135.522 204.115 133.398 205.258C131.016 206.475 128.362 207.074 125.683 207C120.98 207 117.413 205.719 114.984 203.157C112.554 200.595 111.336 196.942 111.327 192.198V173.317C111.312 173.062 111.398 172.812 111.566 172.619C111.647 172.53 111.748 172.46 111.86 172.416C111.972 172.372 112.093 172.353 112.214 172.362H118.945C119.065 172.356 119.185 172.376 119.297 172.42C119.409 172.464 119.51 172.532 119.592 172.619C119.756 172.814 119.839 173.063 119.825 173.317L119.838 192.269Z" fill="white"/>
</g>
<defs>
<clipPath id="clip0">
<rect width="140" height="207" fill="white"/>
</clipPath>
</defs>
</svg>
