<svg width="188" height="370" viewBox="0 0 188 370" fill="none" xmlns="http://www.w3.org/2000/svg">
<g clip-path="url(#clip0)">
<path d="M113.841 46.7588C115.716 49.89 114.57 53.9605 111.446 55.8392L36.7665 99.0494C35.7249 99.6756 34.5792 99.9887 33.4335 99.9887C29.7881 99.9887 26.7676 96.9619 26.7676 93.3089V6.88856C26.7676 5.74046 27.08 4.59237 27.705 3.54864C29.5798 0.417472 33.6418 -0.730624 36.7665 1.14808L111.446 44.3582C112.383 44.9845 113.32 45.8194 113.841 46.7588Z" fill="#111111"/>
<path d="M186.855 142.781C188.73 145.913 187.584 149.983 184.459 151.862L10.2079 252.686C9.16633 253.312 8.02062 253.625 6.87491 253.625C3.22948 253.625 0.208984 250.598 0.208984 246.945V143.303C0.208984 138.502 2.70871 134.119 6.87491 131.822L81.5541 88.6122C85.6162 86.2116 90.7198 86.2116 94.7818 88.6122L184.355 140.485C185.397 140.903 186.23 141.738 186.855 142.781Z" fill="#111111"/>
<path d="M11.8751 351.004H5.31333V363.529C5.31333 363.738 5.20917 363.842 5.10502 363.947C5.00086 364.051 4.79255 364.051 4.6884 364.051H4.16762C3.95931 364.051 3.85516 363.947 3.751 363.842C3.64685 363.738 3.64685 363.633 3.64685 363.425V350.9H1.6679C1.25128 350.9 1.04297 350.691 1.04297 350.274V349.856C1.04297 349.439 1.25128 349.23 1.6679 349.23H3.54269V346.516C3.54269 345.786 3.64685 345.055 3.85516 344.533C4.06347 343.907 4.37593 343.49 4.79255 343.072C5.20917 342.655 5.72995 342.341 6.25072 342.133C6.87566 341.924 7.50059 341.82 8.22967 341.82C8.43798 341.82 8.54214 341.924 8.64629 342.028C8.75045 342.133 8.8546 342.341 8.8546 342.446V342.968C8.8546 343.176 8.75045 343.281 8.64629 343.385C8.54214 343.49 8.43798 343.594 8.22967 343.594C7.29228 343.594 6.56319 343.907 6.14657 344.429C5.72995 344.951 5.41748 345.681 5.41748 346.725V349.543H13.125C13.3333 349.543 13.4374 349.648 13.5416 349.752C13.6457 349.856 13.6457 349.961 13.6457 350.169V363.842C13.6457 364.155 13.4374 364.364 13.125 364.364H12.5C12.0834 364.364 11.9793 364.155 11.9793 363.842V351.004H11.8751ZM11.3543 345.16C11.3543 344.951 11.3543 344.742 11.4585 344.638C11.5626 344.429 11.6668 344.325 11.7709 344.22C11.8751 344.116 12.0834 344.011 12.1876 343.907C12.3959 343.803 12.5 343.803 12.7083 343.803C13.125 343.803 13.4374 343.907 13.6457 344.22C13.9582 344.533 14.0624 344.846 14.0624 345.16C14.0624 345.368 14.0624 345.577 13.9582 345.681C13.854 345.89 13.7499 345.994 13.6457 346.099C13.5416 346.203 13.3333 346.308 13.2291 346.412C13.0208 346.516 12.9167 346.516 12.7083 346.516C12.5 346.516 12.2917 346.516 12.1876 346.412C11.9793 346.308 11.8751 346.203 11.7709 346.099C11.6668 345.994 11.5626 345.786 11.4585 345.681C11.3543 345.473 11.3543 345.264 11.3543 345.16Z" fill="#111111"/>
<path d="M18.5415 363.529C18.5415 363.842 18.3332 364.051 18.0207 364.051H17.3958C16.9792 364.051 16.875 363.842 16.875 363.529V349.752C16.875 349.647 16.875 349.543 16.9792 349.439C17.0833 349.334 17.1875 349.334 17.2916 349.334H18.1249C18.229 349.334 18.3332 349.334 18.3332 349.439C18.4373 349.543 18.4373 349.543 18.4373 349.647V351.735C18.6456 351.317 18.9581 351.004 19.2706 350.691C19.583 350.378 19.9997 350.065 20.4163 349.856C20.8329 349.647 21.2495 349.439 21.7703 349.334C22.1869 349.23 22.7077 349.125 23.2285 349.125C24.0617 349.125 24.8949 349.334 25.624 349.647C26.3531 349.96 26.978 350.378 27.4988 351.004C28.0196 351.526 28.4362 352.257 28.7487 352.987C29.0611 353.718 29.1653 354.553 29.1653 355.388V363.633C29.1653 363.842 29.0611 363.946 28.957 364.051C28.8528 364.155 28.7487 364.155 28.5404 364.155H28.1238C27.9154 364.155 27.8113 364.155 27.7071 364.051C27.603 363.946 27.603 363.842 27.603 363.633V355.388C27.603 354.762 27.4988 354.24 27.1864 353.613C26.8739 352.987 26.6656 352.57 26.249 352.152C25.8323 351.735 25.4157 351.422 24.7908 351.213C24.27 351.004 23.6451 350.9 23.0202 350.9C22.3952 350.9 21.8744 351.004 21.3537 351.213C20.8329 351.422 20.3121 351.735 19.8955 352.152C19.4789 352.57 19.1664 352.987 18.8539 353.509C18.6456 354.031 18.4373 354.553 18.4373 355.179V363.529H18.5415Z" fill="#111111"/>
<path d="M44.9965 363.425C44.9965 363.842 44.7882 364.051 44.3716 364.051H43.9549C43.5383 364.051 43.33 363.842 43.33 363.425V361.546C43.2258 361.755 43.0175 362.068 42.7051 362.381C42.4968 362.694 42.0801 363.007 41.6635 363.32C41.2469 363.633 40.7261 363.842 40.1012 364.051C39.4763 364.26 38.7472 364.364 37.8098 364.364C36.8724 364.364 35.935 364.155 35.1018 363.738C34.2685 363.32 33.5394 362.798 32.9145 362.068C32.2896 361.337 31.7688 360.607 31.4563 359.667C31.1439 358.728 30.9355 357.788 30.9355 356.64C30.9355 355.597 31.1439 354.553 31.4563 353.614C31.7688 352.674 32.2896 351.839 32.9145 351.213C33.5394 350.482 34.2685 349.961 35.1018 349.543C35.935 349.126 36.8724 348.917 37.8098 348.917C38.5389 348.917 39.1638 349.021 39.6846 349.23C40.3095 349.439 40.7261 349.647 41.2469 349.961C41.7677 350.274 42.0801 350.691 42.3926 351.109C42.7051 351.526 43.0175 351.944 43.2259 352.465V342.341C43.2259 342.133 43.33 342.028 43.4342 341.924C43.5383 341.819 43.7466 341.715 43.9549 341.715H44.3716C44.5799 341.715 44.7882 341.819 44.8923 341.924C44.9965 342.028 45.1006 342.133 45.1006 342.341V363.425H44.9965ZM43.33 356.745C43.33 355.91 43.2259 355.179 42.9134 354.449C42.6009 353.718 42.1843 353.092 41.7677 352.57C41.2469 352.048 40.7261 351.63 39.997 351.317C39.268 351.004 38.643 350.796 37.9139 350.796C37.1849 350.796 36.4558 351.004 35.8308 351.317C35.2059 351.63 34.581 352.048 34.0602 352.57C33.5394 353.092 33.227 353.718 32.9145 354.449C32.602 355.179 32.4979 355.91 32.4979 356.745C32.4979 357.58 32.602 358.31 32.9145 359.041C33.227 359.772 33.5394 360.398 34.0602 360.92C34.581 361.441 35.1018 361.859 35.8308 362.172C36.5599 362.485 37.1849 362.694 37.9139 362.694C38.643 362.694 39.3721 362.485 39.997 362.172C40.622 361.859 41.2469 361.441 41.7677 360.92C42.2885 360.398 42.7051 359.772 42.9134 359.041C43.2259 358.415 43.33 357.58 43.33 356.745Z" fill="#111111"/>
<path d="M59.9949 369.582C59.7865 369.896 59.5782 370 59.1616 370H58.6408C58.4325 370 58.2242 369.896 58.1201 369.791C58.0159 369.687 58.0159 369.478 58.1201 369.269L60.4115 363.738L54.7871 350.169C54.6829 349.96 54.6829 349.752 54.7871 349.647C54.8913 349.543 54.9954 349.439 55.3079 349.439H55.9328C56.1411 349.439 56.2453 349.439 56.3494 349.543C56.4536 349.647 56.5577 349.752 56.5577 349.856L61.453 361.65L66.2442 349.752C66.3483 349.439 66.6608 349.334 67.0774 349.334H67.5982C67.8065 349.334 68.0148 349.439 68.119 349.543C68.2231 349.647 68.2231 349.856 68.119 350.065L59.9949 369.582Z" fill="#111111"/>
<path d="M68.0156 356.745C68.0156 355.701 68.2239 354.657 68.6406 353.718C69.0572 352.779 69.5779 351.944 70.307 351.317C71.0361 350.587 71.7652 350.065 72.7026 349.647C73.64 349.23 74.5774 349.021 75.7231 349.021C76.7646 349.021 77.8062 349.23 78.7436 349.647C79.681 350.065 80.5142 350.587 81.1392 351.317C81.8683 352.048 82.389 352.779 82.8057 353.718C83.2223 354.657 83.4306 355.701 83.4306 356.745C83.4306 357.789 83.2223 358.832 82.8057 359.772C82.389 360.711 81.8683 361.546 81.1392 362.172C80.4101 362.903 79.681 363.425 78.7436 363.842C77.8062 364.26 76.7646 364.468 75.7231 364.468C74.6815 364.468 73.64 364.26 72.7026 363.842C71.7652 363.425 70.932 362.903 70.307 362.172C69.5779 361.442 69.0572 360.711 68.6406 359.772C68.2239 358.832 68.0156 357.789 68.0156 356.745ZM69.578 356.745C69.578 357.58 69.7863 358.31 70.0987 359.041C70.4112 359.772 70.8278 360.398 71.3486 360.92C71.8694 361.442 72.4943 361.859 73.2234 362.172C73.9525 362.485 74.6816 362.694 75.5148 362.694C76.348 362.694 77.0771 362.485 77.8062 362.172C78.5353 361.859 79.1602 361.442 79.681 360.92C80.2018 360.398 80.6184 359.772 80.9309 359.041C81.2433 358.31 81.4516 357.58 81.4516 356.745C81.4516 355.91 81.2433 355.179 80.9309 354.449C80.6184 353.718 80.2018 353.092 79.681 352.57C79.1602 352.048 78.5353 351.631 77.8062 351.317C77.0771 351.004 76.348 350.796 75.5148 350.796C74.6816 350.796 73.9525 351.004 73.2234 351.317C72.4943 351.631 71.8694 352.048 71.3486 352.57C70.8278 353.092 70.4112 353.718 70.0987 354.449C69.7863 355.179 69.578 355.91 69.578 356.745Z" fill="#111111"/>
<path d="M97.2825 363.529C97.2825 363.738 97.1783 363.842 97.0742 363.946C96.97 364.051 96.8659 364.051 96.6576 364.051H96.2409C96.0326 364.051 95.9285 364.051 95.8243 363.946C95.7202 363.842 95.7202 363.738 95.7202 363.529C95.7202 363.216 95.7202 362.903 95.7202 362.694C95.7202 362.381 95.7202 362.068 95.7202 361.859C95.5119 362.276 95.1994 362.59 94.8869 362.903C94.5745 363.216 94.1578 363.529 93.7412 363.738C93.3246 363.946 92.908 364.155 92.3872 364.259C91.8664 364.364 91.4498 364.468 90.929 364.468C90.0958 364.468 89.2625 364.259 88.5335 363.946C87.8044 363.633 87.1794 363.216 86.6587 362.59C86.1379 362.068 85.7213 361.337 85.4088 360.606C85.0963 359.876 84.9922 359.041 84.9922 358.206V349.96C84.9922 349.752 85.0963 349.647 85.2005 349.543C85.3047 349.439 85.4088 349.334 85.6171 349.334H86.1379C86.3462 349.334 86.4504 349.334 86.5545 349.439C86.6587 349.543 86.6587 349.647 86.6587 349.856V358.206C86.6587 358.832 86.7628 359.458 86.9711 359.98C87.1794 360.502 87.4919 361.024 87.9085 361.441C88.3252 361.859 88.7418 362.172 89.3667 362.381C89.8875 362.59 90.5124 362.694 91.1373 362.694C91.7623 362.694 92.3872 362.59 92.908 362.381C93.4287 362.172 93.9495 361.859 94.3661 361.441C94.7828 361.024 95.0952 360.606 95.3035 359.98C95.5119 359.354 95.616 358.832 95.616 358.206V349.856C95.616 349.439 95.8243 349.334 96.1368 349.334H96.6576C97.0742 349.334 97.2825 349.543 97.2825 349.856V363.529V363.529Z" fill="#111111"/>
<path d="M100.512 350.065C100.512 349.647 100.72 349.334 101.137 349.334H101.449C101.97 349.334 102.178 349.543 102.178 350.065V350.691V351.63C102.282 351.317 102.491 350.9 102.803 350.587C103.011 350.274 103.324 350.065 103.636 349.856C103.949 349.647 104.365 349.439 104.782 349.334C105.199 349.23 105.615 349.125 106.136 349.125C106.449 349.125 106.761 349.125 107.178 349.23C107.594 349.334 107.907 349.439 108.219 349.543C108.532 349.647 108.844 349.856 109.052 349.96C109.261 350.169 109.365 350.274 109.365 350.482C109.365 350.587 109.365 350.691 109.261 350.795C109.157 350.9 109.157 351.004 109.052 351.213C108.948 351.317 108.844 351.422 108.74 351.526C108.636 351.63 108.532 351.63 108.532 351.63C108.428 351.63 108.428 351.63 108.323 351.63C108.323 351.63 108.219 351.63 108.115 351.526C107.803 351.317 107.49 351.213 107.073 351.004C106.657 350.9 106.344 350.795 105.928 350.795C105.407 350.795 104.886 350.9 104.365 351.213C103.949 351.422 103.532 351.839 103.22 352.257C102.907 352.674 102.595 353.196 102.387 353.718C102.178 354.24 102.074 354.866 102.074 355.388V363.529C102.074 363.842 101.866 364.051 101.553 364.051H101.449H101.032C100.616 364.051 100.512 363.842 100.512 363.529V363.425V350.065Z" fill="#111111"/>
<path d="M118.946 342.341C118.946 341.924 119.154 341.82 119.467 341.82H119.883C119.988 341.82 120.196 341.82 120.196 341.924C120.3 342.028 120.3 342.133 120.404 342.237C120.404 342.341 120.508 342.55 120.508 342.759C120.508 342.968 120.508 343.176 120.508 343.281V344.011V351.631C120.717 351.213 121.029 350.9 121.342 350.587C121.654 350.274 122.071 349.961 122.487 349.752C122.904 349.543 123.32 349.334 123.841 349.23C124.362 349.126 124.779 349.021 125.299 349.021C126.133 349.021 126.966 349.23 127.695 349.543C128.424 349.856 129.049 350.274 129.57 350.9C130.091 351.422 130.507 352.152 130.82 352.883C131.132 353.614 131.236 354.449 131.236 355.284V363.529C131.236 363.738 131.132 363.842 131.028 363.947C130.924 364.051 130.82 364.051 130.611 364.051H130.195C129.986 364.051 129.882 364.051 129.778 363.947C129.674 363.842 129.674 363.738 129.674 363.529V355.284C129.674 354.657 129.466 354.031 129.257 353.509C129.049 352.987 128.737 352.466 128.32 352.048C127.903 351.631 127.487 351.317 126.966 351.109C126.445 350.9 125.82 350.796 125.091 350.796C124.466 350.796 123.945 350.9 123.32 351.109C122.8 351.317 122.279 351.631 121.862 352.048C121.446 352.466 121.133 352.883 120.925 353.405C120.717 353.927 120.508 354.553 120.508 355.075V363.529C120.508 363.738 120.404 363.842 120.3 363.947C120.196 364.051 120.092 364.051 119.883 364.051H119.363C118.946 364.051 118.842 363.842 118.842 363.529V342.341H118.946Z" fill="#111111"/>
<path d="M132.902 356.745C132.902 355.701 133.111 354.657 133.527 353.718C133.944 352.779 134.465 351.944 135.194 351.317C135.923 350.587 136.652 350.065 137.589 349.647C138.527 349.23 139.464 349.021 140.61 349.021C141.651 349.021 142.693 349.23 143.63 349.647C144.568 350.065 145.401 350.587 146.026 351.317C146.755 352.048 147.276 352.779 147.692 353.718C148.109 354.657 148.317 355.701 148.317 356.745C148.317 357.789 148.109 358.832 147.692 359.772C147.276 360.711 146.755 361.546 146.026 362.172C145.297 362.903 144.568 363.425 143.63 363.842C142.693 364.26 141.651 364.468 140.61 364.468C139.568 364.468 138.527 364.26 137.589 363.842C136.652 363.425 135.819 362.903 135.194 362.172C134.465 361.442 133.944 360.711 133.527 359.772C133.111 358.832 132.902 357.789 132.902 356.745ZM134.569 356.745C134.569 357.58 134.777 358.31 135.09 359.041C135.402 359.772 135.819 360.398 136.339 360.92C136.86 361.442 137.485 361.859 138.214 362.172C138.943 362.485 139.672 362.694 140.506 362.694C141.339 362.694 142.068 362.485 142.797 362.172C143.526 361.859 144.151 361.442 144.672 360.92C145.193 360.398 145.609 359.772 145.922 359.041C146.234 358.31 146.443 357.58 146.443 356.745C146.443 355.91 146.234 355.179 145.922 354.449C145.609 353.718 145.193 353.092 144.672 352.57C144.151 352.048 143.526 351.631 142.797 351.317C142.068 351.004 141.339 350.796 140.506 350.796C139.672 350.796 138.943 351.004 138.214 351.317C137.485 351.631 136.86 352.048 136.339 352.57C135.819 353.092 135.402 353.718 135.09 354.449C134.777 355.179 134.569 355.91 134.569 356.745Z" fill="#111111"/>
<path d="M152.172 363.529C152.172 363.842 151.964 364.051 151.652 364.051H151.027C150.61 364.051 150.506 363.842 150.506 363.529V349.752C150.506 349.647 150.506 349.543 150.61 349.439C150.714 349.334 150.818 349.334 150.922 349.334H151.756C151.964 349.334 152.068 349.439 152.068 349.647V351.422C152.276 351.109 152.485 350.795 152.797 350.587C153.11 350.274 153.422 350.065 153.735 349.856C154.047 349.647 154.464 349.543 154.88 349.334C155.297 349.23 155.714 349.125 156.13 349.125C156.651 349.125 157.276 349.23 157.693 349.334C158.213 349.439 158.63 349.752 159.047 349.96C159.463 350.274 159.776 350.587 160.192 350.9C160.505 351.317 160.817 351.735 161.026 352.152C161.234 351.735 161.546 351.317 161.755 350.9C162.067 350.482 162.38 350.169 162.796 349.96C163.213 349.647 163.629 349.439 164.15 349.334C164.671 349.23 165.192 349.125 165.713 349.125C166.442 349.125 167.067 349.23 167.691 349.543C168.316 349.752 168.837 350.169 169.358 350.587C169.879 351.004 170.191 351.526 170.504 352.152C170.816 352.779 171.024 353.405 171.024 354.031C171.129 354.553 171.129 355.075 171.129 355.597V363.529C171.129 363.738 171.024 363.842 170.92 363.946C170.816 364.051 170.712 364.051 170.504 364.051H169.983C169.566 364.051 169.358 363.842 169.358 363.425V354.762C169.358 354.24 169.254 353.718 169.045 353.196C168.837 352.674 168.629 352.257 168.316 351.944C168.004 351.63 167.587 351.317 167.171 351.109C166.754 350.9 166.233 350.795 165.713 350.795C165.192 350.795 164.775 350.9 164.358 351.004C163.942 351.213 163.525 351.422 163.213 351.63C162.9 351.944 162.588 352.257 162.38 352.674C162.171 353.092 161.963 353.509 161.859 353.927C161.859 354.135 161.755 354.448 161.755 354.657C161.755 354.866 161.755 355.179 161.755 355.388V363.32C161.755 363.738 161.546 363.946 161.234 363.946H160.609C160.192 363.946 160.088 363.738 160.088 363.32V354.553C160.088 354.031 159.984 353.509 159.776 352.987C159.567 352.465 159.255 352.152 158.942 351.735C158.63 351.422 158.213 351.109 157.693 350.9C157.276 350.691 156.755 350.587 156.234 350.587C155.714 350.587 155.193 350.691 154.672 350.9C154.151 351.109 153.735 351.422 153.422 351.735C153.11 352.048 152.797 352.465 152.589 352.987C152.381 353.509 152.276 354.031 152.276 354.553V363.529H152.172Z" fill="#111111"/>
<path d="M180.816 362.798C181.44 362.798 182.065 362.694 182.69 362.485C183.315 362.276 183.836 361.963 184.357 361.65C184.461 361.546 184.669 361.441 184.773 361.337C184.982 361.233 185.086 361.128 185.19 361.128C185.294 361.128 185.398 361.128 185.398 361.233C185.503 361.337 185.607 361.441 185.607 361.546C185.711 361.65 185.711 361.755 185.815 361.963C185.919 362.068 185.919 362.276 185.919 362.381C185.815 362.485 185.711 362.694 185.607 362.798C185.503 362.903 185.294 363.007 185.19 363.111C184.565 363.529 183.836 363.842 183.107 364.155C182.378 364.364 181.545 364.573 180.711 364.573C179.67 364.573 178.628 364.364 177.691 363.946C176.753 363.529 175.92 363.007 175.295 362.276C174.566 361.546 174.045 360.815 173.629 359.876C173.212 358.936 173.004 357.997 173.004 356.849C173.004 355.805 173.212 354.762 173.629 353.822C174.045 352.883 174.566 352.048 175.191 351.422C175.816 350.691 176.649 350.169 177.483 349.752C178.42 349.334 179.357 349.125 180.399 349.125C181.336 349.125 182.274 349.334 183.211 349.647C184.044 350.065 184.878 350.587 185.503 351.213C186.127 351.839 186.648 352.674 187.065 353.613C187.481 354.553 187.586 355.492 187.586 356.536C187.586 356.849 187.481 357.058 187.273 357.162C187.065 357.267 186.857 357.267 186.544 357.267H174.67C174.775 357.997 174.879 358.728 175.295 359.458C175.608 360.085 176.024 360.711 176.649 361.233C177.17 361.755 177.795 362.068 178.524 362.381C179.357 362.694 180.086 362.798 180.816 362.798ZM186.127 355.805C186.023 355.075 185.815 354.448 185.503 353.822C185.19 353.196 184.773 352.674 184.253 352.152C183.732 351.735 183.211 351.317 182.586 351.109C181.961 350.795 181.232 350.691 180.607 350.691C179.878 350.691 179.253 350.795 178.628 351.109C178.003 351.317 177.378 351.735 176.962 352.152C176.441 352.57 176.024 353.196 175.712 353.822C175.399 354.448 175.191 355.075 175.087 355.805H186.127Z" fill="#111111"/>
<path d="M36.7672 306.75C37.9129 308.629 38.4337 310.717 38.4337 312.908C38.4337 315.726 37.8088 318.231 36.5589 320.214C35.309 322.302 33.5384 323.763 31.1428 324.911C28.7473 325.955 25.9351 326.477 22.7063 326.477H5.20821C4.79159 326.477 4.58328 326.372 4.37497 326.164C4.16665 325.955 4.0625 325.642 4.0625 325.329V282.536C4.0625 282.119 4.16665 281.91 4.37497 281.701C4.58328 281.492 4.89574 281.388 5.20821 281.388H21.3523C24.4769 281.388 27.1849 281.91 29.4763 282.954C31.7678 283.997 33.4342 285.458 34.58 287.442C35.7257 289.425 36.3506 291.721 36.3506 294.434C36.3506 296.104 35.934 297.67 35.2049 299.131C34.4758 300.592 33.4342 301.741 32.1844 302.576C34.1633 303.515 35.6215 304.872 36.7672 306.75ZM24.1644 292.451C23.4354 291.721 22.498 291.408 21.2481 291.408H15.2071V299.027H21.2481C22.498 299.027 23.4354 298.714 24.1644 297.983C24.8935 297.253 25.206 296.313 25.206 295.165C25.206 294.017 24.8935 293.182 24.1644 292.451ZM25.9351 315.205C26.7683 314.37 27.1849 313.221 27.1849 311.865C27.1849 310.508 26.7683 309.36 25.9351 308.629C25.1018 307.794 23.9561 307.481 22.498 307.481H15.2071V316.561H22.498C23.9561 316.457 25.1018 316.04 25.9351 315.205Z" fill="#111111"/>
<path d="M81.2419 325.433C81.2419 325.746 81.1377 326.059 80.9294 326.268C80.7211 326.477 80.4086 326.581 79.8879 326.581H71.1388C70.7222 326.581 70.3056 326.477 69.9931 326.164C69.6807 325.85 69.3682 325.537 69.1599 325.12L67.0768 319.171H51.4535L49.4746 325.12C49.3704 325.537 49.058 325.955 48.7455 326.164C48.3289 326.477 47.9122 326.581 47.4956 326.581H38.7466C38.33 326.581 38.0175 326.477 37.705 326.268C37.4967 326.059 37.3926 325.85 37.3926 325.433C37.3926 325.224 37.3926 325.016 37.4967 324.702L54.0574 282.849C54.2657 282.327 54.5782 282.014 54.8906 281.701C55.3073 281.388 55.7239 281.283 56.1405 281.283H62.5981C63.0147 281.283 63.4314 281.388 63.848 281.701C64.2646 282.014 64.4729 282.327 64.6812 282.849L81.1377 324.702C81.2419 325.016 81.2419 325.224 81.2419 325.433ZM63.9521 309.881L59.3693 296.209L54.6823 309.881H63.9521V309.881Z" fill="#111111"/>
<path d="M80.6172 321.571C80.6172 321.258 80.7213 320.841 80.9296 320.423L84.5751 313.848C84.8875 313.221 85.4083 313.013 85.9291 313.013C86.2416 313.013 86.554 313.117 86.9706 313.221C89.0538 314.161 90.9285 314.891 92.9075 315.413C94.7823 315.935 96.7612 316.248 98.8443 316.248C100.407 316.248 101.761 315.935 102.802 315.309C103.844 314.683 104.469 313.848 104.469 312.804C104.469 312.073 104.156 311.343 103.531 310.821C102.906 310.299 102.073 309.777 100.927 309.36C99.7817 308.942 98.2194 308.42 96.2405 307.794C93.0116 306.855 90.5119 305.811 88.4288 304.767C86.4499 303.724 84.8875 302.262 83.846 300.592C82.8044 298.922 82.2837 296.835 82.2837 294.33C82.2837 291.408 83.0128 289.007 84.5751 286.92C86.1374 284.832 88.1164 283.267 90.6161 282.223C93.1158 281.179 95.928 280.657 98.8443 280.657C100.719 280.657 102.594 280.866 104.469 281.283C106.344 281.701 108.114 282.223 109.676 282.953C111.239 283.58 112.489 284.31 113.53 284.936C114.155 285.354 114.468 285.771 114.468 286.293C114.468 286.606 114.363 287.024 114.051 287.441L110.406 294.121C110.093 294.643 109.676 294.956 109.156 294.956C108.739 294.956 108.322 294.852 107.802 294.539C106.031 293.704 104.469 292.973 103.011 292.556C101.552 292.138 99.8859 291.825 98.1152 291.825C96.8654 291.825 95.7197 292.138 94.7823 292.66C93.8449 293.182 93.3241 293.913 93.3241 294.747C93.3241 295.687 93.949 296.417 95.0948 297.044C96.3446 297.67 98.2194 298.401 100.927 299.236C104.26 300.175 106.968 301.219 109.052 302.262C111.135 303.306 112.801 304.663 114.051 306.333C115.301 308.003 115.926 310.299 115.926 313.013C115.926 315.935 115.197 318.44 113.634 320.632C112.072 322.824 109.989 324.494 107.385 325.642C104.781 326.79 101.761 327.416 98.636 327.416C95.6155 327.416 92.595 326.999 89.6787 326.268C86.6582 325.537 83.9502 324.389 81.5546 322.928C80.9297 322.511 80.6172 322.093 80.6172 321.571Z" fill="#111111"/>
<path d="M115.821 283.058C115.821 282.536 115.925 282.119 116.238 281.805C116.55 281.492 116.967 281.388 117.487 281.388H147.588C148.109 281.388 148.526 281.492 148.838 281.805C149.151 282.119 149.255 282.536 149.255 283.058V290.468C149.255 290.99 149.151 291.408 148.838 291.721C148.526 292.034 148.109 292.138 147.588 292.138H138.11V325.329C138.11 325.851 138.006 326.268 137.694 326.581C137.381 326.894 136.964 326.999 136.444 326.999H128.528C128.007 326.999 127.59 326.894 127.278 326.581C126.966 326.268 126.861 325.851 126.861 325.329V292.138H117.383C116.863 292.138 116.446 292.034 116.133 291.721C115.821 291.408 115.717 290.99 115.717 290.468V283.058H115.821Z" fill="#111111"/>
<path d="M161.233 307.898C161.233 310.508 161.858 312.595 163.108 314.161C164.358 315.726 166.337 316.561 168.836 316.561C171.336 316.561 173.315 315.726 174.565 314.161C175.815 312.595 176.44 310.508 176.44 307.898V282.64C176.44 282.223 176.544 281.91 176.752 281.701C176.961 281.492 177.273 281.388 177.69 281.388H186.23C186.647 281.388 186.959 281.492 187.168 281.701C187.376 281.91 187.584 282.223 187.584 282.64V307.794C187.584 311.969 186.855 315.518 185.397 318.44C183.939 321.363 181.752 323.659 178.94 325.224C176.127 326.79 172.794 327.52 168.836 327.52C162.691 327.52 158.004 325.851 154.776 322.406C151.547 318.962 149.984 314.161 149.984 307.794V282.64C149.984 282.223 150.089 281.91 150.297 281.701C150.505 281.492 150.818 281.388 151.13 281.388H159.983C160.4 281.388 160.608 281.492 160.817 281.701C161.025 281.91 161.129 282.223 161.129 282.64V307.898H161.233Z" fill="#111111"/>
</g>
<defs>
<clipPath id="clip0">
<rect width="188" height="370" fill="white"/>
</clipPath>
</defs>
</svg>
